%TF.GenerationSoftware,KiCad,Pcbnew,(5.99.0-8018-g9a0f685a75)*%
%TF.CreationDate,2021-03-04T01:20:55+00:00*%
%TF.ProjectId,CM4,434d342e-6b69-4636-9164-5f7063625858,v01*%
%TF.SameCoordinates,Original*%
%TF.FileFunction,Soldermask,Top*%
%TF.FilePolarity,Negative*%
%FSLAX46Y46*%
G04 Gerber Fmt 4.6, Leading zero omitted, Abs format (unit mm)*
G04 Created by KiCad (PCBNEW (5.99.0-8018-g9a0f685a75)) date 2021-03-04 01:20:55*
%MOMM*%
%LPD*%
G01*
G04 APERTURE LIST*
G04 Aperture macros list*
%AMRoundRect*
0 Rectangle with rounded corners*
0 $1 Rounding radius*
0 $2 $3 $4 $5 $6 $7 $8 $9 X,Y pos of 4 corners*
0 Add a 4 corners polygon primitive as box body*
4,1,4,$2,$3,$4,$5,$6,$7,$8,$9,$2,$3,0*
0 Add four circle primitives for the rounded corners*
1,1,$1+$1,$2,$3,0*
1,1,$1+$1,$4,$5,0*
1,1,$1+$1,$6,$7,0*
1,1,$1+$1,$8,$9,0*
0 Add four rect primitives between the rounded corners*
20,1,$1+$1,$2,$3,$4,$5,0*
20,1,$1+$1,$4,$5,$6,$7,0*
20,1,$1+$1,$6,$7,$8,$9,0*
20,1,$1+$1,$8,$9,$2,$3,0*%
G04 Aperture macros list end*
%ADD10C,6.100000*%
%ADD11RoundRect,0.140000X0.170000X-0.140000X0.170000X0.140000X-0.170000X0.140000X-0.170000X-0.140000X0*%
%ADD12RoundRect,0.135000X0.135000X0.185000X-0.135000X0.185000X-0.135000X-0.185000X0.135000X-0.185000X0*%
%ADD13RoundRect,0.140000X-0.170000X0.140000X-0.170000X-0.140000X0.170000X-0.140000X0.170000X0.140000X0*%
%ADD14R,1.200000X0.600000*%
%ADD15RoundRect,0.135000X0.185000X-0.135000X0.185000X0.135000X-0.185000X0.135000X-0.185000X-0.135000X0*%
%ADD16RoundRect,0.140000X-0.140000X-0.170000X0.140000X-0.170000X0.140000X0.170000X-0.140000X0.170000X0*%
%ADD17RoundRect,0.225000X0.250000X-0.225000X0.250000X0.225000X-0.250000X0.225000X-0.250000X-0.225000X0*%
%ADD18RoundRect,0.250000X0.625000X-0.375000X0.625000X0.375000X-0.625000X0.375000X-0.625000X-0.375000X0*%
%ADD19RoundRect,0.140000X0.140000X0.170000X-0.140000X0.170000X-0.140000X-0.170000X0.140000X-0.170000X0*%
%ADD20RoundRect,0.135000X-0.185000X0.135000X-0.185000X-0.135000X0.185000X-0.135000X0.185000X0.135000X0*%
%ADD21RoundRect,0.250000X0.450000X0.425000X-0.450000X0.425000X-0.450000X-0.425000X0.450000X-0.425000X0*%
%ADD22R,1.200000X1.400000*%
%ADD23R,1.650000X1.650000*%
%ADD24C,1.650000*%
%ADD25R,0.230000X0.350000*%
%ADD26R,0.350000X0.230000*%
%ADD27R,1.450000X0.300000*%
%ADD28R,0.300000X1.450000*%
%ADD29R,1.200000X0.700000*%
%ADD30R,0.800000X1.000000*%
%ADD31R,1.900000X1.300000*%
%ADD32R,1.200000X1.000000*%
%ADD33R,2.800000X1.000000*%
%ADD34RoundRect,0.135000X-0.135000X-0.185000X0.135000X-0.185000X0.135000X0.185000X-0.135000X0.185000X0*%
%ADD35RoundRect,0.250000X0.312500X0.625000X-0.312500X0.625000X-0.312500X-0.625000X0.312500X-0.625000X0*%
%ADD36RoundRect,0.225000X-0.225000X-0.250000X0.225000X-0.250000X0.225000X0.250000X-0.225000X0.250000X0*%
%ADD37RoundRect,0.225000X-0.250000X0.225000X-0.250000X-0.225000X0.250000X-0.225000X0.250000X0.225000X0*%
%ADD38RoundRect,0.200000X-0.600000X0.200000X-0.600000X-0.200000X0.600000X-0.200000X0.600000X0.200000X0*%
%ADD39RoundRect,0.250001X-1.249999X0.799999X-1.249999X-0.799999X1.249999X-0.799999X1.249999X0.799999X0*%
%ADD40R,2.500000X1.800000*%
%ADD41RoundRect,0.200000X0.200000X0.600000X-0.200000X0.600000X-0.200000X-0.600000X0.200000X-0.600000X0*%
%ADD42RoundRect,0.250001X0.799999X1.249999X-0.799999X1.249999X-0.799999X-1.249999X0.799999X-1.249999X0*%
%ADD43R,0.700000X0.450000*%
%ADD44C,0.650000*%
%ADD45R,1.450000X0.600000*%
%ADD46O,2.100000X1.000000*%
%ADD47O,1.600000X1.000000*%
%ADD48R,0.500000X1.100000*%
%ADD49R,1.350000X0.400000*%
%ADD50R,1.900000X1.500000*%
%ADD51C,1.450000*%
%ADD52O,1.900000X1.200000*%
%ADD53R,1.900000X1.200000*%
%ADD54RoundRect,0.218750X0.218750X0.256250X-0.218750X0.256250X-0.218750X-0.256250X0.218750X-0.256250X0*%
%ADD55RoundRect,0.218750X-0.256250X0.218750X-0.256250X-0.218750X0.256250X-0.218750X0.256250X0.218750X0*%
%ADD56RoundRect,0.175000X-0.175000X0.725000X-0.175000X-0.725000X0.175000X-0.725000X0.175000X0.725000X0*%
%ADD57RoundRect,0.200000X-0.200000X0.700000X-0.200000X-0.700000X0.200000X-0.700000X0.200000X0.700000X0*%
%ADD58R,1.000000X1.000000*%
%ADD59O,1.000000X1.000000*%
%ADD60RoundRect,0.150000X0.512500X0.150000X-0.512500X0.150000X-0.512500X-0.150000X0.512500X-0.150000X0*%
%ADD61RoundRect,0.200000X-0.200000X-0.275000X0.200000X-0.275000X0.200000X0.275000X-0.200000X0.275000X0*%
%ADD62RoundRect,0.218750X0.218750X0.381250X-0.218750X0.381250X-0.218750X-0.381250X0.218750X-0.381250X0*%
%ADD63RoundRect,0.160000X0.222500X0.160000X-0.222500X0.160000X-0.222500X-0.160000X0.222500X-0.160000X0*%
%ADD64R,0.500000X0.350000*%
%ADD65C,2.220000*%
%ADD66C,2.310000*%
%ADD67R,1.525000X0.650000*%
%ADD68R,2.290000X2.290000*%
%ADD69R,1.700000X1.700000*%
%ADD70O,1.700000X1.700000*%
%ADD71RoundRect,0.218750X-0.218750X-0.256250X0.218750X-0.256250X0.218750X0.256250X-0.218750X0.256250X0*%
%ADD72RoundRect,0.225000X0.225000X0.250000X-0.225000X0.250000X-0.225000X-0.250000X0.225000X-0.250000X0*%
%ADD73R,0.800000X1.400000*%
%ADD74C,1.500000*%
%ADD75RoundRect,0.200000X0.200000X0.450000X-0.200000X0.450000X-0.200000X-0.450000X0.200000X-0.450000X0*%
%ADD76O,0.800000X1.300000*%
G04 APERTURE END LIST*
D10*
%TO.C,Module1*%
X126850000Y-79950000D03*
X174850000Y-46950000D03*
X126850000Y-46950000D03*
X174850000Y-79950000D03*
%TD*%
D11*
%TO.C,C12*%
X171400000Y-113880000D03*
X171400000Y-112920000D03*
%TD*%
D12*
%TO.C,R18*%
X126310000Y-107400000D03*
X125290000Y-107400000D03*
%TD*%
D11*
%TO.C,C28*%
X134600000Y-112880000D03*
X134600000Y-111920000D03*
%TD*%
%TO.C,C21*%
X166200000Y-103680000D03*
X166200000Y-102720000D03*
%TD*%
D13*
%TO.C,C26*%
X136200000Y-109720000D03*
X136200000Y-110680000D03*
%TD*%
D11*
%TO.C,C22*%
X136800000Y-97280000D03*
X136800000Y-96320000D03*
%TD*%
D14*
%TO.C,Q1*%
X153550000Y-60850000D03*
X153550000Y-62750000D03*
X156050000Y-61800000D03*
%TD*%
D15*
%TO.C,R8*%
X135000000Y-92110000D03*
X135000000Y-91090000D03*
%TD*%
D16*
%TO.C,C16*%
X160800000Y-87200000D03*
X161760000Y-87200000D03*
%TD*%
D17*
%TO.C,C49*%
X166600000Y-107375000D03*
X166600000Y-105825000D03*
%TD*%
D18*
%TO.C,F1*%
X159600000Y-63400000D03*
X159600000Y-60600000D03*
%TD*%
D16*
%TO.C,C50*%
X132220000Y-109500000D03*
X133180000Y-109500000D03*
%TD*%
D13*
%TO.C,C37*%
X159750000Y-86470000D03*
X159750000Y-87430000D03*
%TD*%
D19*
%TO.C,C20*%
X153880000Y-118400000D03*
X152920000Y-118400000D03*
%TD*%
D20*
%TO.C,R14*%
X142600000Y-85890000D03*
X142600000Y-86910000D03*
%TD*%
D21*
%TO.C,C15*%
X163550000Y-118400000D03*
X160850000Y-118400000D03*
%TD*%
D22*
%TO.C,Y1*%
X131550000Y-105500000D03*
X131550000Y-107700000D03*
X133250000Y-107700000D03*
X133250000Y-105500000D03*
%TD*%
D23*
%TO.C,J7*%
X132790000Y-93000000D03*
D24*
X130250000Y-93000000D03*
X127710000Y-93000000D03*
%TD*%
D17*
%TO.C,C41*%
X135250000Y-100200000D03*
X135250000Y-98650000D03*
%TD*%
D20*
%TO.C,R5*%
X175600000Y-112890000D03*
X175600000Y-113910000D03*
%TD*%
%TO.C,R32*%
X145600000Y-75390000D03*
X145600000Y-76410000D03*
%TD*%
%TO.C,R10*%
X147200000Y-86490000D03*
X147200000Y-87510000D03*
%TD*%
D25*
%TO.C,U3*%
X150195000Y-82675000D03*
D26*
X150225000Y-83255000D03*
X150225000Y-83685000D03*
X150225000Y-84115000D03*
X150225000Y-84545000D03*
D25*
X150195000Y-85125000D03*
X150625000Y-85125000D03*
X151055000Y-85125000D03*
X151485000Y-85125000D03*
X151915000Y-85125000D03*
X152345000Y-85125000D03*
X152775000Y-85125000D03*
X153205000Y-85125000D03*
D26*
X153175000Y-84545000D03*
X153175000Y-84115000D03*
X153175000Y-83685000D03*
X153175000Y-83255000D03*
D25*
X153205000Y-82675000D03*
X152775000Y-82675000D03*
X152345000Y-82675000D03*
X151915000Y-82675000D03*
X151485000Y-82675000D03*
X151055000Y-82675000D03*
X150625000Y-82675000D03*
%TD*%
D12*
%TO.C,R21*%
X168810000Y-92850000D03*
X167790000Y-92850000D03*
%TD*%
D27*
%TO.C,IC2*%
X138775000Y-91350000D03*
X138775000Y-91850000D03*
X138775000Y-92350000D03*
X138775000Y-92850000D03*
X138775000Y-93350000D03*
X138775000Y-93850000D03*
X138775000Y-94350000D03*
X138775000Y-94850000D03*
X138775000Y-95350000D03*
X138775000Y-95850000D03*
X138775000Y-96350000D03*
X138775000Y-96850000D03*
X138775000Y-97350000D03*
X138775000Y-97850000D03*
X138775000Y-98350000D03*
X138775000Y-98850000D03*
X138775000Y-99350000D03*
X138775000Y-99850000D03*
X138775000Y-100350000D03*
X138775000Y-100850000D03*
X138775000Y-101350000D03*
X138775000Y-101850000D03*
X138775000Y-102350000D03*
X138775000Y-102850000D03*
X138775000Y-103350000D03*
X138775000Y-103850000D03*
X138775000Y-104350000D03*
X138775000Y-104850000D03*
X138775000Y-105350000D03*
X138775000Y-105850000D03*
X138775000Y-106350000D03*
X138775000Y-106850000D03*
X138775000Y-107350000D03*
X138775000Y-107850000D03*
X138775000Y-108350000D03*
X138775000Y-108850000D03*
X138775000Y-109350000D03*
X138775000Y-109850000D03*
X138775000Y-110350000D03*
X138775000Y-110850000D03*
X138775000Y-111350000D03*
X138775000Y-111850000D03*
X138775000Y-112350000D03*
X138775000Y-112850000D03*
D28*
X140750000Y-114825000D03*
X141250000Y-114825000D03*
X141750000Y-114825000D03*
X142250000Y-114825000D03*
X142750000Y-114825000D03*
X143250000Y-114825000D03*
X143750000Y-114825000D03*
X144250000Y-114825000D03*
X144750000Y-114825000D03*
X145250000Y-114825000D03*
X145750000Y-114825000D03*
X146250000Y-114825000D03*
X146750000Y-114825000D03*
X147250000Y-114825000D03*
X147750000Y-114825000D03*
X148250000Y-114825000D03*
X148750000Y-114825000D03*
X149250000Y-114825000D03*
X149750000Y-114825000D03*
X150250000Y-114825000D03*
X150750000Y-114825000D03*
X151250000Y-114825000D03*
X151750000Y-114825000D03*
X152250000Y-114825000D03*
X152750000Y-114825000D03*
X153250000Y-114825000D03*
X153750000Y-114825000D03*
X154250000Y-114825000D03*
X154750000Y-114825000D03*
X155250000Y-114825000D03*
X155750000Y-114825000D03*
X156250000Y-114825000D03*
X156750000Y-114825000D03*
X157250000Y-114825000D03*
X157750000Y-114825000D03*
X158250000Y-114825000D03*
X158750000Y-114825000D03*
X159250000Y-114825000D03*
X159750000Y-114825000D03*
X160250000Y-114825000D03*
X160750000Y-114825000D03*
X161250000Y-114825000D03*
X161750000Y-114825000D03*
X162250000Y-114825000D03*
D27*
X164225000Y-112850000D03*
X164225000Y-112350000D03*
X164225000Y-111850000D03*
X164225000Y-111350000D03*
X164225000Y-110850000D03*
X164225000Y-110350000D03*
X164225000Y-109850000D03*
X164225000Y-109350000D03*
X164225000Y-108850000D03*
X164225000Y-108350000D03*
X164225000Y-107850000D03*
X164225000Y-107350000D03*
X164225000Y-106850000D03*
X164225000Y-106350000D03*
X164225000Y-105850000D03*
X164225000Y-105350000D03*
X164225000Y-104850000D03*
X164225000Y-104350000D03*
X164225000Y-103850000D03*
X164225000Y-103350000D03*
X164225000Y-102850000D03*
X164225000Y-102350000D03*
X164225000Y-101850000D03*
X164225000Y-101350000D03*
X164225000Y-100850000D03*
X164225000Y-100350000D03*
X164225000Y-99850000D03*
X164225000Y-99350000D03*
X164225000Y-98850000D03*
X164225000Y-98350000D03*
X164225000Y-97850000D03*
X164225000Y-97350000D03*
X164225000Y-96850000D03*
X164225000Y-96350000D03*
X164225000Y-95850000D03*
X164225000Y-95350000D03*
X164225000Y-94850000D03*
X164225000Y-94350000D03*
X164225000Y-93850000D03*
X164225000Y-93350000D03*
X164225000Y-92850000D03*
X164225000Y-92350000D03*
X164225000Y-91850000D03*
X164225000Y-91350000D03*
D28*
X162250000Y-89375000D03*
X161750000Y-89375000D03*
X161250000Y-89375000D03*
X160750000Y-89375000D03*
X160250000Y-89375000D03*
X159750000Y-89375000D03*
X159250000Y-89375000D03*
X158750000Y-89375000D03*
X158250000Y-89375000D03*
X157750000Y-89375000D03*
X157250000Y-89375000D03*
X156750000Y-89375000D03*
X156250000Y-89375000D03*
X155750000Y-89375000D03*
X155250000Y-89375000D03*
X154750000Y-89375000D03*
X154250000Y-89375000D03*
X153750000Y-89375000D03*
X153250000Y-89375000D03*
X152750000Y-89375000D03*
X152250000Y-89375000D03*
X151750000Y-89375000D03*
X151250000Y-89375000D03*
X150750000Y-89375000D03*
X150250000Y-89375000D03*
X149750000Y-89375000D03*
X149250000Y-89375000D03*
X148750000Y-89375000D03*
X148250000Y-89375000D03*
X147750000Y-89375000D03*
X147250000Y-89375000D03*
X146750000Y-89375000D03*
X146250000Y-89375000D03*
X145750000Y-89375000D03*
X145250000Y-89375000D03*
X144750000Y-89375000D03*
X144250000Y-89375000D03*
X143750000Y-89375000D03*
X143250000Y-89375000D03*
X142750000Y-89375000D03*
X142250000Y-89375000D03*
X141750000Y-89375000D03*
X141250000Y-89375000D03*
X140750000Y-89375000D03*
%TD*%
D13*
%TO.C,C17*%
X166200000Y-100320000D03*
X166200000Y-101280000D03*
%TD*%
D29*
%TO.C,J15*%
X162825000Y-66425000D03*
X162825000Y-67525000D03*
X162825000Y-68625000D03*
X162825000Y-69725000D03*
X162825000Y-70825000D03*
X162825000Y-71925000D03*
X162825000Y-73025000D03*
X162825000Y-74125000D03*
X162825000Y-75075000D03*
D30*
X173325000Y-76025000D03*
D31*
X177925000Y-62525000D03*
D32*
X162825000Y-64875000D03*
X167125000Y-76025000D03*
D33*
X177475000Y-76025000D03*
%TD*%
D34*
%TO.C,R27*%
X159940000Y-65300000D03*
X160960000Y-65300000D03*
%TD*%
D16*
%TO.C,C11*%
X148545000Y-75670000D03*
X149505000Y-75670000D03*
%TD*%
%TO.C,C51*%
X132120000Y-103550000D03*
X133080000Y-103550000D03*
%TD*%
D21*
%TO.C,C25*%
X129350000Y-115000000D03*
X126650000Y-115000000D03*
%TD*%
D13*
%TO.C,C36*%
X128000000Y-112320000D03*
X128000000Y-113280000D03*
%TD*%
D35*
%TO.C,R4*%
X168062500Y-53600000D03*
X165137500Y-53600000D03*
%TD*%
D13*
%TO.C,C34*%
X143900000Y-86170000D03*
X143900000Y-87130000D03*
%TD*%
D36*
%TO.C,C3*%
X151625000Y-55000000D03*
X153175000Y-55000000D03*
%TD*%
D37*
%TO.C,C4*%
X177200000Y-113625000D03*
X177200000Y-115175000D03*
%TD*%
D19*
%TO.C,C8*%
X148280000Y-76800000D03*
X147320000Y-76800000D03*
%TD*%
D38*
%TO.C,J1*%
X129400000Y-54800000D03*
X129400000Y-56050000D03*
X129400000Y-57300000D03*
D39*
X126500000Y-52250000D03*
X126500000Y-59850000D03*
%TD*%
D40*
%TO.C,D2*%
X173600000Y-96800000D03*
X177600000Y-96800000D03*
%TD*%
D41*
%TO.C,J3*%
X144825000Y-48800000D03*
X143575000Y-48800000D03*
D42*
X147375000Y-45900000D03*
X141025000Y-45900000D03*
%TD*%
D36*
%TO.C,C10*%
X150825000Y-76800000D03*
X152375000Y-76800000D03*
%TD*%
D11*
%TO.C,C30*%
X136600000Y-103480000D03*
X136600000Y-102520000D03*
%TD*%
D43*
%TO.C,Q2*%
X135600000Y-85550000D03*
X135600000Y-86850000D03*
X137600000Y-86200000D03*
%TD*%
D44*
%TO.C,J2*%
X172650000Y-58640000D03*
X172650000Y-52860000D03*
D45*
X171205000Y-59000000D03*
X171205000Y-58200000D03*
D27*
X171205000Y-57000000D03*
X171205000Y-56000000D03*
X171205000Y-55500000D03*
X171205000Y-54500000D03*
D45*
X171205000Y-53300000D03*
X171205000Y-52500000D03*
X171205000Y-52500000D03*
X171205000Y-53300000D03*
D27*
X171205000Y-54000000D03*
X171205000Y-55000000D03*
X171205000Y-56500000D03*
X171205000Y-57500000D03*
D45*
X171205000Y-58200000D03*
X171205000Y-59000000D03*
D46*
X172120000Y-60070000D03*
D47*
X176300000Y-51430000D03*
X176300000Y-60070000D03*
D46*
X172120000Y-51430000D03*
%TD*%
D34*
%TO.C,R30*%
X159490000Y-72350000D03*
X160510000Y-72350000D03*
%TD*%
%TO.C,R13*%
X131290000Y-114400000D03*
X132310000Y-114400000D03*
%TD*%
D48*
%TO.C,D3*%
X167600000Y-83950000D03*
X167600000Y-86250000D03*
%TD*%
D23*
%TO.C,J8*%
X132750000Y-89500000D03*
D24*
X130210000Y-89500000D03*
X127670000Y-89500000D03*
%TD*%
D34*
%TO.C,R28*%
X159440000Y-67050000D03*
X160460000Y-67050000D03*
%TD*%
D35*
%TO.C,R3*%
X167862500Y-57400000D03*
X164937500Y-57400000D03*
%TD*%
D49*
%TO.C,J13*%
X174737500Y-89700000D03*
X174737500Y-89050000D03*
X174737500Y-88400000D03*
X174737500Y-87750000D03*
X174737500Y-87100000D03*
D50*
X177437500Y-87400000D03*
D51*
X174737500Y-85900000D03*
X174737500Y-90900000D03*
D52*
X177437500Y-84900000D03*
X177437500Y-91900000D03*
D53*
X177437500Y-91300000D03*
D50*
X177437500Y-89400000D03*
D53*
X177437500Y-85500000D03*
%TD*%
D54*
%TO.C,FB2*%
X136187500Y-114550000D03*
X134612500Y-114550000D03*
%TD*%
D11*
%TO.C,C9*%
X170200000Y-113880000D03*
X170200000Y-112920000D03*
%TD*%
D55*
%TO.C,FB3*%
X170650000Y-84562500D03*
X170650000Y-86137500D03*
%TD*%
D23*
%TO.C,J6*%
X132750000Y-96250000D03*
D24*
X130210000Y-96250000D03*
X127670000Y-96250000D03*
%TD*%
D56*
%TO.C,U2*%
X178200000Y-101450000D03*
D57*
X177100000Y-101450000D03*
X176000000Y-101450000D03*
X174900000Y-101450000D03*
X173800000Y-101450000D03*
X172700000Y-101450000D03*
X171600000Y-101450000D03*
X170500000Y-101450000D03*
D56*
X169400000Y-101450000D03*
X169400000Y-110950000D03*
D57*
X170500000Y-110950000D03*
X171600000Y-110950000D03*
X172700000Y-110950000D03*
X173800000Y-110950000D03*
X174900000Y-110950000D03*
X176000000Y-110950000D03*
X177100000Y-110950000D03*
D56*
X178200000Y-110950000D03*
%TD*%
D17*
%TO.C,C46*%
X141300000Y-87175000D03*
X141300000Y-85625000D03*
%TD*%
D58*
%TO.C,J14*%
X154200000Y-70200000D03*
D59*
X154200000Y-71470000D03*
X152930000Y-70200000D03*
X152930000Y-71470000D03*
X151660000Y-70200000D03*
X151660000Y-71470000D03*
X150390000Y-70200000D03*
X150390000Y-71470000D03*
X149120000Y-70200000D03*
X149120000Y-71470000D03*
%TD*%
D12*
%TO.C,R6*%
X170210000Y-99350000D03*
X169190000Y-99350000D03*
%TD*%
D60*
%TO.C,U4*%
X171237500Y-89850000D03*
X171237500Y-88900000D03*
X171237500Y-87950000D03*
X168962500Y-87950000D03*
X168962500Y-88900000D03*
X168962500Y-89850000D03*
%TD*%
D61*
%TO.C,R1*%
X163075000Y-46400000D03*
X164725000Y-46400000D03*
%TD*%
D34*
%TO.C,R12*%
X133490000Y-83400000D03*
X134510000Y-83400000D03*
%TD*%
D62*
%TO.C,FB1*%
X151062500Y-62400000D03*
X148937500Y-62400000D03*
%TD*%
D11*
%TO.C,C52*%
X145600000Y-66780000D03*
X145600000Y-65820000D03*
%TD*%
D34*
%TO.C,R17*%
X125290000Y-106000000D03*
X126310000Y-106000000D03*
%TD*%
D63*
%TO.C,L2*%
X174122500Y-113390000D03*
X172977500Y-113390000D03*
%TD*%
D34*
%TO.C,R29*%
X159840000Y-69000000D03*
X160860000Y-69000000D03*
%TD*%
D64*
%TO.C,U1*%
X143400000Y-80825000D03*
X143400000Y-81475000D03*
X143400000Y-82125000D03*
X143400000Y-82775000D03*
X141800000Y-82775000D03*
X141800000Y-82125000D03*
X141800000Y-81475000D03*
X141800000Y-80825000D03*
%TD*%
D13*
%TO.C,C48*%
X166600000Y-110320000D03*
X166600000Y-111280000D03*
%TD*%
D21*
%TO.C,C27*%
X132550000Y-112400000D03*
X129850000Y-112400000D03*
%TD*%
D11*
%TO.C,C7*%
X171400000Y-99080000D03*
X171400000Y-98120000D03*
%TD*%
D65*
%TO.C,J4*%
X170400000Y-118000000D03*
D66*
X167860000Y-120540000D03*
X172940000Y-120540000D03*
X172940000Y-115460000D03*
X167860000Y-115460000D03*
%TD*%
D11*
%TO.C,C14*%
X152000000Y-81080000D03*
X152000000Y-80120000D03*
%TD*%
D67*
%TO.C,IC1*%
X143688000Y-53595000D03*
X143688000Y-54865000D03*
X143688000Y-56135000D03*
X143688000Y-57405000D03*
X149112000Y-57405000D03*
X149112000Y-56135000D03*
X149112000Y-54865000D03*
X149112000Y-53595000D03*
D68*
X146400000Y-55500000D03*
%TD*%
D21*
%TO.C,C47*%
X162950000Y-84550000D03*
X160250000Y-84550000D03*
%TD*%
D19*
%TO.C,C40*%
X162880000Y-120150000D03*
X161920000Y-120150000D03*
%TD*%
D12*
%TO.C,R11*%
X136910000Y-83800000D03*
X135890000Y-83800000D03*
%TD*%
D69*
%TO.C,J16*%
X141800000Y-120200000D03*
D70*
X144340000Y-120200000D03*
X146880000Y-120200000D03*
%TD*%
D15*
%TO.C,R16*%
X146500000Y-84410000D03*
X146500000Y-83390000D03*
%TD*%
D23*
%TO.C,J5*%
X132750000Y-99750000D03*
D24*
X130210000Y-99750000D03*
X127670000Y-99750000D03*
%TD*%
D36*
%TO.C,C45*%
X157625000Y-117000000D03*
X159175000Y-117000000D03*
%TD*%
D23*
%TO.C,J12*%
X132700000Y-86000000D03*
D24*
X130160000Y-86000000D03*
X127620000Y-86000000D03*
%TD*%
D19*
%TO.C,C35*%
X153880000Y-117000000D03*
X152920000Y-117000000D03*
%TD*%
D37*
%TO.C,C1*%
X140700000Y-53625000D03*
X140700000Y-55175000D03*
%TD*%
D71*
%TO.C,D1*%
X166912500Y-46400000D03*
X168487500Y-46400000D03*
%TD*%
D20*
%TO.C,R31*%
X160350000Y-74540000D03*
X160350000Y-75560000D03*
%TD*%
%TO.C,R15*%
X145200000Y-83390000D03*
X145200000Y-84410000D03*
%TD*%
D12*
%TO.C,R26*%
X136310000Y-106800000D03*
X135290000Y-106800000D03*
%TD*%
D19*
%TO.C,C23*%
X147280000Y-116900000D03*
X146320000Y-116900000D03*
%TD*%
D11*
%TO.C,C6*%
X139600000Y-82280000D03*
X139600000Y-81320000D03*
%TD*%
D72*
%TO.C,C53*%
X141275000Y-57100000D03*
X139725000Y-57100000D03*
%TD*%
D11*
%TO.C,C19*%
X136800000Y-94880000D03*
X136800000Y-93920000D03*
%TD*%
D55*
%TO.C,FB4*%
X135200000Y-95412500D03*
X135200000Y-96987500D03*
%TD*%
D36*
%TO.C,C2*%
X155225000Y-53600000D03*
X156775000Y-53600000D03*
%TD*%
D16*
%TO.C,C13*%
X153120000Y-81050000D03*
X154080000Y-81050000D03*
%TD*%
D19*
%TO.C,C38*%
X150280000Y-116600000D03*
X149320000Y-116600000D03*
%TD*%
D16*
%TO.C,C24*%
X148720000Y-87200000D03*
X149680000Y-87200000D03*
%TD*%
%TO.C,C29*%
X154320000Y-87100000D03*
X155280000Y-87100000D03*
%TD*%
D11*
%TO.C,C32*%
X139900000Y-86880000D03*
X139900000Y-85920000D03*
%TD*%
D19*
%TO.C,C39*%
X142480000Y-117100000D03*
X141520000Y-117100000D03*
%TD*%
D15*
%TO.C,R9*%
X135400000Y-89710000D03*
X135400000Y-88690000D03*
%TD*%
D37*
%TO.C,C44*%
X166600000Y-96625000D03*
X166600000Y-98175000D03*
%TD*%
D15*
%TO.C,R7*%
X136200000Y-92510000D03*
X136200000Y-91490000D03*
%TD*%
D11*
%TO.C,C5*%
X138080000Y-82280000D03*
X138080000Y-81320000D03*
%TD*%
D73*
%TO.C,S2*%
X145150000Y-69000000D03*
X141650000Y-69000000D03*
X143400000Y-73000000D03*
%TD*%
D36*
%TO.C,C54*%
X151725000Y-57400000D03*
X153275000Y-57400000D03*
%TD*%
D74*
%TO.C,S1*%
X136237500Y-66050000D03*
X142737500Y-66050000D03*
X142737500Y-61550000D03*
X136237500Y-61550000D03*
%TD*%
D13*
%TO.C,C31*%
X168200000Y-96320000D03*
X168200000Y-97280000D03*
%TD*%
D75*
%TO.C,J9*%
X134400000Y-117000000D03*
D76*
X133150000Y-117000000D03*
%TD*%
M02*
