%TF.GenerationSoftware,KiCad,Pcbnew,(5.99.0-10089-gf88d39b4f0)*%
%TF.CreationDate,2021-04-25T16:59:05+01:00*%
%TF.ProjectId,CM4,434d342e-6b69-4636-9164-5f7063625858,v01*%
%TF.SameCoordinates,Original*%
%TF.FileFunction,Legend,Top*%
%TF.FilePolarity,Positive*%
%FSLAX46Y46*%
G04 Gerber Fmt 4.6, Leading zero omitted, Abs format (unit mm)*
G04 Created by KiCad (PCBNEW (5.99.0-10089-gf88d39b4f0)) date 2021-04-25 16:59:05*
%MOMM*%
%LPD*%
G01*
G04 APERTURE LIST*
%ADD10C,0.150000*%
%ADD11C,0.125000*%
%ADD12C,0.120000*%
%ADD13C,0.200000*%
%ADD14C,0.100000*%
%ADD15C,0.250000*%
G04 APERTURE END LIST*
D10*
X144641421Y-74200000D02*
G75*
G03*
X144641421Y-74200000I-141421J0D01*
G01*
X152286000Y-74106000D02*
X152540000Y-73852000D01*
X179141421Y-99000000D02*
G75*
G03*
X179141421Y-99000000I-141421J0D01*
G01*
X150381000Y-74233000D02*
X150381000Y-73852000D01*
X150000000Y-76392000D02*
X150254000Y-76138000D01*
X150000000Y-73852000D02*
X150000000Y-76392000D01*
X150000000Y-74233000D02*
X150381000Y-74233000D01*
X150000000Y-73852000D02*
X152540000Y-73852000D01*
X149746000Y-76138000D02*
X150000000Y-76392000D01*
X178941421Y-99900000D02*
G75*
G03*
X178941421Y-99900000I-141421J0D01*
G01*
X152286000Y-73598000D02*
X152286000Y-74106000D01*
X179541421Y-88800000D02*
G75*
G03*
X179541421Y-88800000I-141421J0D01*
G01*
X152540000Y-73852000D02*
X152286000Y-73598000D01*
X131400000Y-57000000D02*
G75*
G03*
X131400000Y-57000000I-141421J0D01*
G01*
X150254000Y-76138000D02*
X149746000Y-76138000D01*
D11*
X137109523Y-114435714D02*
X137490476Y-114435714D01*
X137300000Y-114626190D02*
X137300000Y-114245238D01*
D10*
X152754380Y-74185333D02*
X153754380Y-73518666D01*
X152754380Y-73518666D02*
X153754380Y-74185333D01*
D11*
X163909523Y-110935714D02*
X164290476Y-110935714D01*
X164100000Y-111126190D02*
X164100000Y-110745238D01*
X136509523Y-109935714D02*
X136890476Y-109935714D01*
X136700000Y-110126190D02*
X136700000Y-109745238D01*
D10*
X149976190Y-76900000D02*
X150452380Y-76900000D01*
X149452380Y-77233333D02*
X149976190Y-76900000D01*
X149452380Y-76566666D01*
D12*
%TO.C,FB1*%
X144862779Y-69090000D02*
X144537221Y-69090000D01*
X144862779Y-70110000D02*
X144537221Y-70110000D01*
%TO.C,R18*%
X153820000Y-113153641D02*
X153820000Y-112846359D01*
X154580000Y-113153641D02*
X154580000Y-112846359D01*
%TO.C,C28*%
X137640000Y-110392164D02*
X137640000Y-110607836D01*
X138360000Y-110392164D02*
X138360000Y-110607836D01*
%TO.C,C26*%
X138360000Y-107992164D02*
X138360000Y-108207836D01*
X137640000Y-107992164D02*
X137640000Y-108207836D01*
D13*
%TO.C,Q1*%
X151600000Y-68575000D02*
X151600000Y-65625000D01*
X150050000Y-65600000D02*
X151250000Y-65600000D01*
X151600000Y-65625000D02*
X152200000Y-65625000D01*
X152200000Y-68575000D02*
X151600000Y-68575000D01*
X152200000Y-65625000D02*
X152200000Y-68575000D01*
D12*
%TO.C,R8*%
X135080000Y-93253641D02*
X135080000Y-92946359D01*
X134320000Y-93253641D02*
X134320000Y-92946359D01*
%TO.C,C50*%
X133692164Y-106060000D02*
X133907836Y-106060000D01*
X133692164Y-105340000D02*
X133907836Y-105340000D01*
%TO.C,C37*%
X164440000Y-99392164D02*
X164440000Y-99607836D01*
X165160000Y-99392164D02*
X165160000Y-99607836D01*
%TO.C,C15*%
X166335000Y-115000000D02*
X166335000Y-111090000D01*
X164465000Y-111090000D02*
X164465000Y-115000000D01*
X166335000Y-111090000D02*
X164465000Y-111090000D01*
%TO.C,Y1*%
X135350000Y-100800000D02*
X132050000Y-100800000D01*
X132050000Y-100800000D02*
X132050000Y-104800000D01*
D13*
%TO.C,J7*%
X132790000Y-73720000D02*
X123650000Y-73720000D01*
X123650000Y-73720000D02*
X123650000Y-71180000D01*
X123650000Y-71180000D02*
X126190000Y-71180000D01*
X123650000Y-72450000D02*
X117810000Y-72450000D01*
D12*
%TO.C,C17*%
X167210000Y-99359420D02*
X167210000Y-99640580D01*
X166190000Y-99359420D02*
X166190000Y-99640580D01*
%TO.C,R5*%
X174180000Y-113246359D02*
X174180000Y-113553641D01*
X173420000Y-113246359D02*
X173420000Y-113553641D01*
%TO.C,R32*%
X145220000Y-82546359D02*
X145220000Y-82853641D01*
X145980000Y-82546359D02*
X145980000Y-82853641D01*
%TO.C,R10*%
X147746359Y-82680000D02*
X148053641Y-82680000D01*
X147746359Y-81920000D02*
X148053641Y-81920000D01*
%TO.C,U3*%
X149750000Y-85600000D02*
X149750000Y-84900000D01*
X150500000Y-85600000D02*
X149750000Y-85600000D01*
X153650000Y-82200000D02*
X153650000Y-82900000D01*
X152900000Y-82200000D02*
X153650000Y-82200000D01*
X153650000Y-84900000D02*
X153650000Y-85600000D01*
X153650000Y-85600000D02*
X152900000Y-85600000D01*
X149900000Y-82200000D02*
G75*
G03*
X149900000Y-82200000I-150000J0D01*
G01*
X149810000Y-82200000D02*
G75*
G03*
X149810000Y-82200000I-60000J0D01*
G01*
%TO.C,D7*%
X125635000Y-107885000D02*
X125635000Y-105600000D01*
X124165000Y-107885000D02*
X125635000Y-107885000D01*
X124165000Y-105600000D02*
X124165000Y-107885000D01*
%TO.C,J15*%
X178720000Y-76505000D02*
X178870000Y-76505000D01*
X162800000Y-79605000D02*
X166410000Y-79605000D01*
X162800000Y-65635000D02*
X176810000Y-65635000D01*
X178720000Y-76505000D02*
X178720000Y-70135000D01*
X179070000Y-76715000D02*
X178870000Y-76505000D01*
X179070000Y-67315000D02*
X178870000Y-67115000D01*
X174110000Y-79605000D02*
X175910000Y-79605000D01*
X179070000Y-78575000D02*
X179070000Y-76715000D01*
X178870000Y-67115000D02*
X178870000Y-66855000D01*
X179070000Y-78575000D02*
X178870000Y-78775000D01*
X179070000Y-69625000D02*
X178720000Y-70135000D01*
X168110000Y-79605000D02*
X172810000Y-79605000D01*
X162800000Y-67555000D02*
X162800000Y-65635000D01*
X162800000Y-79155000D02*
X162800000Y-79605000D01*
X179070000Y-67315000D02*
X179070000Y-69625000D01*
%TO.C,R22*%
X136349758Y-120322500D02*
X135875242Y-120322500D01*
X136349758Y-119277500D02*
X135875242Y-119277500D01*
%TO.C,R27*%
X158946359Y-70180000D02*
X159253641Y-70180000D01*
X158946359Y-69420000D02*
X159253641Y-69420000D01*
%TO.C,C11*%
X154340000Y-83907836D02*
X154340000Y-83692164D01*
X155060000Y-83907836D02*
X155060000Y-83692164D01*
%TO.C,R2*%
X144472936Y-67210000D02*
X145927064Y-67210000D01*
X144472936Y-65390000D02*
X145927064Y-65390000D01*
%TO.C,C51*%
X133492164Y-99540000D02*
X133707836Y-99540000D01*
X133492164Y-100260000D02*
X133707836Y-100260000D01*
%TO.C,C25*%
X132700000Y-109635000D02*
X136610000Y-109635000D01*
X136610000Y-107765000D02*
X132700000Y-107765000D01*
X136610000Y-109635000D02*
X136610000Y-107765000D01*
%TO.C,C36*%
X137040000Y-94107836D02*
X137040000Y-93892164D01*
X137760000Y-94107836D02*
X137760000Y-93892164D01*
%TO.C,R4*%
X146210000Y-52827064D02*
X146210000Y-51372936D01*
X144390000Y-52827064D02*
X144390000Y-51372936D01*
%TO.C,C34*%
X142092164Y-85940000D02*
X142307836Y-85940000D01*
X142092164Y-86660000D02*
X142307836Y-86660000D01*
%TO.C,R25*%
X125522500Y-109662742D02*
X125522500Y-110137258D01*
X124477500Y-109662742D02*
X124477500Y-110137258D01*
%TO.C,C3*%
X141859420Y-60110000D02*
X142140580Y-60110000D01*
X141859420Y-59090000D02*
X142140580Y-59090000D01*
%TO.C,C4*%
X169640580Y-96290000D02*
X169359420Y-96290000D01*
X169640580Y-97310000D02*
X169359420Y-97310000D01*
%TO.C,C9*%
X177792164Y-113240000D02*
X178007836Y-113240000D01*
X177792164Y-113960000D02*
X178007836Y-113960000D01*
%TO.C,C8*%
X148840000Y-80707836D02*
X148840000Y-80492164D01*
X149560000Y-80707836D02*
X149560000Y-80492164D01*
%TO.C,C10*%
X150359420Y-78090000D02*
X150640580Y-78090000D01*
X150359420Y-79110000D02*
X150640580Y-79110000D01*
%TO.C,C30*%
X138060000Y-98807836D02*
X138060000Y-98592164D01*
X137340000Y-98807836D02*
X137340000Y-98592164D01*
%TO.C,Q2*%
X138430000Y-67140000D02*
X136400000Y-67140000D01*
X138430000Y-68800000D02*
X138430000Y-69460000D01*
X137020000Y-69460000D02*
X138430000Y-69460000D01*
X138430000Y-67140000D02*
X138430000Y-67800000D01*
%TO.C,J2*%
X157200000Y-50640000D02*
X157200000Y-48740000D01*
X157200000Y-48740000D02*
X147800000Y-48740000D01*
X147800000Y-50640000D02*
X147800000Y-48740000D01*
X157200000Y-54540000D02*
X157200000Y-52540000D01*
X147800000Y-54540000D02*
X147800000Y-52540000D01*
%TO.C,R30*%
X159446359Y-77080000D02*
X159753641Y-77080000D01*
X159446359Y-76320000D02*
X159753641Y-76320000D01*
%TO.C,R13*%
X135646359Y-111480000D02*
X135953641Y-111480000D01*
X135646359Y-110720000D02*
X135953641Y-110720000D01*
D13*
%TO.C,J8*%
X123610000Y-67680000D02*
X126150000Y-67680000D01*
X123610000Y-68950000D02*
X117770000Y-68950000D01*
X132750000Y-70220000D02*
X123610000Y-70220000D01*
X123610000Y-70220000D02*
X123610000Y-67680000D01*
D12*
%TO.C,R28*%
X158946359Y-72080000D02*
X159253641Y-72080000D01*
X158946359Y-71320000D02*
X159253641Y-71320000D01*
%TO.C,J1*%
X173500000Y-116600000D02*
X173500000Y-119400000D01*
X168900000Y-119400000D02*
X168900000Y-116600000D01*
X168900000Y-116600000D02*
X169800000Y-115700000D01*
X169800000Y-115700000D02*
X172600000Y-115700000D01*
X173500000Y-119400000D02*
X168900000Y-119400000D01*
X172600000Y-115700000D02*
X173500000Y-116600000D01*
%TO.C,R3*%
X160810000Y-53027064D02*
X160810000Y-51572936D01*
X158990000Y-53027064D02*
X158990000Y-51572936D01*
%TO.C,C16*%
X134907836Y-95360000D02*
X134692164Y-95360000D01*
X134907836Y-94640000D02*
X134692164Y-94640000D01*
%TO.C,FB2*%
X135237221Y-113710000D02*
X135562779Y-113710000D01*
X135237221Y-112690000D02*
X135562779Y-112690000D01*
%TO.C,R24*%
X136349758Y-118522500D02*
X135875242Y-118522500D01*
X136349758Y-117477500D02*
X135875242Y-117477500D01*
D13*
%TO.C,J6*%
X132750000Y-76970000D02*
X123610000Y-76970000D01*
X123610000Y-74430000D02*
X126150000Y-74430000D01*
X123610000Y-75700000D02*
X117770000Y-75700000D01*
X123610000Y-76970000D02*
X123610000Y-74430000D01*
D12*
%TO.C,U2*%
X168790000Y-101240000D02*
X168640000Y-101240000D01*
X178960000Y-101240000D02*
X178960000Y-111160000D01*
X168790000Y-111160000D02*
X168640000Y-111160000D01*
X178810000Y-100550000D02*
X178810000Y-101240000D01*
X178960000Y-101240000D02*
X178810000Y-101240000D01*
X178960000Y-111160000D02*
X178810000Y-111160000D01*
X168640000Y-101240000D02*
X168640000Y-111160000D01*
%TO.C,C46*%
X142110000Y-82840580D02*
X142110000Y-82559420D01*
X141090000Y-82840580D02*
X141090000Y-82559420D01*
%TO.C,J14*%
X176610000Y-87063471D02*
X176610000Y-87206529D01*
X175792470Y-81995000D02*
X174970000Y-81995000D01*
X178500000Y-87010000D02*
X177933471Y-87010000D01*
X177062470Y-81995000D02*
X176407530Y-81995000D01*
X178500000Y-88530000D02*
X177370000Y-88530000D01*
X175792470Y-88465000D02*
X174970000Y-88465000D01*
X178500000Y-87770000D02*
X178500000Y-88530000D01*
X176610000Y-88333471D02*
X176610000Y-88465000D01*
X174970000Y-88465000D02*
X174970000Y-81995000D01*
X176610000Y-88465000D02*
X176407530Y-88465000D01*
X178500000Y-87010000D02*
X178500000Y-81995000D01*
X178500000Y-81995000D02*
X177677530Y-81995000D01*
X176806529Y-87010000D02*
X176663471Y-87010000D01*
%TO.C,R1*%
X140837258Y-51722500D02*
X140362742Y-51722500D01*
X140837258Y-50677500D02*
X140362742Y-50677500D01*
%TO.C,R12*%
X135946359Y-66080000D02*
X136253641Y-66080000D01*
X135946359Y-65320000D02*
X136253641Y-65320000D01*
%TO.C,R23*%
X127622500Y-109762742D02*
X127622500Y-110237258D01*
X126577500Y-109762742D02*
X126577500Y-110237258D01*
%TO.C,C52*%
X126007836Y-82640000D02*
X125792164Y-82640000D01*
X126007836Y-83360000D02*
X125792164Y-83360000D01*
%TO.C,D6*%
X138427500Y-117265000D02*
X138427500Y-118735000D01*
X138427500Y-118735000D02*
X140712500Y-118735000D01*
X140712500Y-117265000D02*
X138427500Y-117265000D01*
%TO.C,R17*%
X156120000Y-113146359D02*
X156120000Y-113453641D01*
X156880000Y-113146359D02*
X156880000Y-113453641D01*
%TO.C,L2*%
X171100200Y-114060000D02*
X170899800Y-114060000D01*
X171100200Y-113340000D02*
X170899800Y-113340000D01*
%TO.C,J10*%
X151315000Y-117240000D02*
X151315000Y-116790000D01*
X151315000Y-121210000D02*
X158285000Y-121210000D01*
X158285000Y-117240000D02*
X158285000Y-116790000D01*
X158285000Y-121210000D02*
X158285000Y-120760000D01*
X158285000Y-116790000D02*
X157335000Y-116790000D01*
X151315000Y-120760000D02*
X151315000Y-121210000D01*
X152265000Y-116790000D02*
X152265000Y-115300000D01*
X151315000Y-116790000D02*
X152265000Y-116790000D01*
%TO.C,R29*%
X158846359Y-73880000D02*
X159153641Y-73880000D01*
X158846359Y-73120000D02*
X159153641Y-73120000D01*
D14*
%TO.C,U1*%
X147650000Y-114740000D02*
X147650000Y-114100000D01*
X147170000Y-114100000D02*
X147650000Y-114100000D01*
X147170000Y-116300000D02*
X147650000Y-116300000D01*
X144950000Y-116300000D02*
X144950000Y-115660000D01*
X147650000Y-116300000D02*
X147650000Y-115660000D01*
X144950000Y-114740000D02*
X144950000Y-114100000D01*
X144950000Y-116300000D02*
X145430000Y-116300000D01*
D12*
%TO.C,C27*%
X137490000Y-114235000D02*
X141400000Y-114235000D01*
X137490000Y-112365000D02*
X137490000Y-114235000D01*
X141400000Y-112365000D02*
X137490000Y-112365000D01*
%TO.C,C7*%
X172192164Y-98940000D02*
X172407836Y-98940000D01*
X172192164Y-99660000D02*
X172407836Y-99660000D01*
%TO.C,C14*%
X150340000Y-80907836D02*
X150340000Y-80692164D01*
X151060000Y-80907836D02*
X151060000Y-80692164D01*
D13*
%TO.C,IC1*%
X131925000Y-57220000D02*
X133450000Y-57220000D01*
D12*
%TO.C,J3*%
X178200000Y-90600000D02*
X177450000Y-90600000D01*
X176650000Y-97800000D02*
X175800000Y-97800000D01*
X178200000Y-94200000D02*
X178200000Y-97800000D01*
X178200000Y-97800000D02*
X177450000Y-97800000D01*
X177450000Y-90600000D02*
X177450000Y-90400000D01*
X178200000Y-94200000D02*
X178200000Y-90600000D01*
X177450000Y-97800000D02*
X177450000Y-98000000D01*
X178710000Y-90090000D02*
X175290000Y-90090000D01*
X176650000Y-90400000D02*
X176650000Y-90600000D01*
X176650000Y-90600000D02*
X175800000Y-90600000D01*
X175800000Y-97800000D02*
X175800000Y-94200000D01*
X175290000Y-98310000D02*
X178710000Y-98310000D01*
X179000000Y-98600000D02*
X178000000Y-98600000D01*
X177450000Y-90400000D02*
X176650000Y-90400000D01*
X175290000Y-90090000D02*
X175290000Y-98310000D01*
X179000000Y-98600000D02*
X179000000Y-97600000D01*
X178710000Y-98310000D02*
X178710000Y-90090000D01*
X177450000Y-98000000D02*
X176650000Y-98000000D01*
X175800000Y-90600000D02*
X175800000Y-94200000D01*
X176650000Y-98000000D02*
X176650000Y-97800000D01*
%TO.C,C40*%
X162092164Y-112760000D02*
X162307836Y-112760000D01*
X162092164Y-112040000D02*
X162307836Y-112040000D01*
%TO.C,R11*%
X134553641Y-81520000D02*
X134246359Y-81520000D01*
X134553641Y-82280000D02*
X134246359Y-82280000D01*
%TO.C,J16*%
X124270000Y-95375000D02*
X124270000Y-94045000D01*
X124270000Y-94045000D02*
X125600000Y-94045000D01*
X126930000Y-96645000D02*
X126930000Y-101785000D01*
X124270000Y-96645000D02*
X126930000Y-96645000D01*
X124270000Y-101785000D02*
X126930000Y-101785000D01*
X124270000Y-96645000D02*
X124270000Y-101785000D01*
%TO.C,R6*%
X137346359Y-87620000D02*
X137653641Y-87620000D01*
X137346359Y-88380000D02*
X137653641Y-88380000D01*
%TO.C,R16*%
X142920000Y-84743641D02*
X142920000Y-84436359D01*
X143680000Y-84743641D02*
X143680000Y-84436359D01*
D13*
%TO.C,J5*%
X132750000Y-80470000D02*
X123610000Y-80470000D01*
X123610000Y-79200000D02*
X117770000Y-79200000D01*
X123610000Y-80470000D02*
X123610000Y-77930000D01*
X123610000Y-77930000D02*
X126150000Y-77930000D01*
D12*
%TO.C,C12*%
X175660000Y-113507836D02*
X175660000Y-113292164D01*
X174940000Y-113507836D02*
X174940000Y-113292164D01*
%TO.C,C45*%
X159159420Y-112990000D02*
X159440580Y-112990000D01*
X159159420Y-114010000D02*
X159440580Y-114010000D01*
D13*
%TO.C,J12*%
X132700000Y-66720000D02*
X123560000Y-66720000D01*
X123560000Y-65450000D02*
X117720000Y-65450000D01*
X123560000Y-66720000D02*
X123560000Y-64180000D01*
X123560000Y-64180000D02*
X126100000Y-64180000D01*
D12*
%TO.C,C35*%
X144007836Y-112640000D02*
X143792164Y-112640000D01*
X144007836Y-113360000D02*
X143792164Y-113360000D01*
%TO.C,C1*%
X128640580Y-57290000D02*
X128359420Y-57290000D01*
X128640580Y-58310000D02*
X128359420Y-58310000D01*
%TO.C,D1*%
X138485000Y-51935000D02*
X138485000Y-50465000D01*
X138485000Y-50465000D02*
X136200000Y-50465000D01*
X136200000Y-51935000D02*
X138485000Y-51935000D01*
%TO.C,R31*%
X159653641Y-79080000D02*
X159346359Y-79080000D01*
X159653641Y-78320000D02*
X159346359Y-78320000D01*
%TO.C,R15*%
X144920000Y-84646359D02*
X144920000Y-84953641D01*
X145680000Y-84646359D02*
X145680000Y-84953641D01*
%TO.C,R26*%
X137353641Y-103980000D02*
X137046359Y-103980000D01*
X137353641Y-103220000D02*
X137046359Y-103220000D01*
%TO.C,C6*%
X147060000Y-117892164D02*
X147060000Y-118107836D01*
X146340000Y-117892164D02*
X146340000Y-118107836D01*
%TO.C,C53*%
X128440580Y-59690000D02*
X128159420Y-59690000D01*
X128440580Y-60710000D02*
X128159420Y-60710000D01*
%TO.C,C19*%
X137340000Y-96207836D02*
X137340000Y-95992164D01*
X138060000Y-96207836D02*
X138060000Y-95992164D01*
%TO.C,C2*%
X141959420Y-56890000D02*
X142240580Y-56890000D01*
X141959420Y-57910000D02*
X142240580Y-57910000D01*
%TO.C,C13*%
X151640000Y-80907836D02*
X151640000Y-80692164D01*
X152360000Y-80907836D02*
X152360000Y-80692164D01*
%TO.C,C38*%
X150707836Y-113360000D02*
X150492164Y-113360000D01*
X150707836Y-112640000D02*
X150492164Y-112640000D01*
%TO.C,D5*%
X126365000Y-105500000D02*
X126365000Y-107785000D01*
X126365000Y-107785000D02*
X127835000Y-107785000D01*
X127835000Y-107785000D02*
X127835000Y-105500000D01*
D13*
%TO.C,IC2*%
X160650000Y-109150000D02*
X141350000Y-109150000D01*
X141350000Y-109150000D02*
X141350000Y-89850000D01*
X141350000Y-89850000D02*
X160650000Y-89850000D01*
X160650000Y-89850000D02*
X160650000Y-109150000D01*
D15*
X139900000Y-90000000D02*
G75*
G03*
X139900000Y-90000000I-125000J0D01*
G01*
D12*
%TO.C,C29*%
X154892164Y-87260000D02*
X155107836Y-87260000D01*
X154892164Y-86540000D02*
X155107836Y-86540000D01*
%TO.C,D4*%
X138427500Y-119065000D02*
X138427500Y-120535000D01*
X140712500Y-119065000D02*
X138427500Y-119065000D01*
X138427500Y-120535000D02*
X140712500Y-120535000D01*
%TO.C,C32*%
X164740000Y-90792164D02*
X164740000Y-91007836D01*
X165460000Y-90792164D02*
X165460000Y-91007836D01*
%TO.C,C33*%
X164040000Y-105307836D02*
X164040000Y-105092164D01*
X164760000Y-105307836D02*
X164760000Y-105092164D01*
%TO.C,C39*%
X137960000Y-105492164D02*
X137960000Y-105707836D01*
X137240000Y-105492164D02*
X137240000Y-105707836D01*
%TO.C,R9*%
X134620000Y-90153641D02*
X134620000Y-89846359D01*
X135380000Y-90153641D02*
X135380000Y-89846359D01*
%TO.C,U4*%
X169500000Y-94760000D02*
X168700000Y-94760000D01*
X169500000Y-91640000D02*
X170300000Y-91640000D01*
X169500000Y-91640000D02*
X167700000Y-91640000D01*
X169500000Y-94760000D02*
X170300000Y-94760000D01*
%TO.C,R7*%
X137880000Y-91053641D02*
X137880000Y-90746359D01*
X137120000Y-91053641D02*
X137120000Y-90746359D01*
%TO.C,C5*%
X145360000Y-117892164D02*
X145360000Y-118107836D01*
X144640000Y-117892164D02*
X144640000Y-118107836D01*
D13*
%TO.C,S2*%
X140500000Y-78450000D02*
X140500000Y-76550000D01*
X146500000Y-76550000D02*
X146500000Y-78450000D01*
X140500000Y-76550000D02*
X146500000Y-76550000D01*
X146500000Y-78450000D02*
X140500000Y-78450000D01*
X145900000Y-74800000D02*
X145900000Y-76200000D01*
D12*
%TO.C,C54*%
X141759420Y-61290000D02*
X142040580Y-61290000D01*
X141759420Y-62310000D02*
X142040580Y-62310000D01*
D14*
%TO.C,S1*%
X125700000Y-89100000D02*
X125700000Y-87100000D01*
X126700000Y-85100000D02*
X130700000Y-85100000D01*
X131700000Y-89100000D02*
X131700000Y-87100000D01*
X126700000Y-91100000D02*
X130700000Y-91100000D01*
D12*
%TO.C,C31*%
X153092164Y-77860000D02*
X153307836Y-77860000D01*
X153092164Y-77140000D02*
X153307836Y-77140000D01*
%TD*%
M02*
