%TF.GenerationSoftware,KiCad,Pcbnew,(5.99.0-8018-g9a0f685a75)*%
%TF.CreationDate,2021-03-04T01:20:55+00:00*%
%TF.ProjectId,CM4,434d342e-6b69-4636-9164-5f7063625858,v01*%
%TF.SameCoordinates,Original*%
%TF.FileFunction,Legend,Top*%
%TF.FilePolarity,Positive*%
%FSLAX46Y46*%
G04 Gerber Fmt 4.6, Leading zero omitted, Abs format (unit mm)*
G04 Created by KiCad (PCBNEW (5.99.0-8018-g9a0f685a75)) date 2021-03-04 01:20:55*
%MOMM*%
%LPD*%
G01*
G04 APERTURE LIST*
%ADD10C,0.150000*%
%ADD11C,0.125000*%
%ADD12C,0.120000*%
%ADD13C,0.200000*%
%ADD14C,0.250000*%
%ADD15C,0.100000*%
G04 APERTURE END LIST*
D10*
X168619047Y-82871428D02*
X169380952Y-82871428D01*
X169000000Y-83252380D02*
X169000000Y-82490476D01*
X144100000Y-80000000D02*
G75*
G03*
X144100000Y-80000000I-100000J0D01*
G01*
X171219047Y-94971428D02*
X171980952Y-94971428D01*
X171600000Y-95352380D02*
X171600000Y-94590476D01*
X142400000Y-52600000D02*
G75*
G03*
X142400000Y-52600000I-100000J0D01*
G01*
X152719000Y-65127000D02*
X152973000Y-64873000D01*
X150814000Y-65254000D02*
X150814000Y-64873000D01*
X147141421Y-68200000D02*
G75*
G03*
X147141421Y-68200000I-141421J0D01*
G01*
X150433000Y-67413000D02*
X150687000Y-67159000D01*
X150433000Y-64873000D02*
X150433000Y-67413000D01*
X150433000Y-65254000D02*
X150814000Y-65254000D01*
X150433000Y-64873000D02*
X152973000Y-64873000D01*
X171541421Y-90800000D02*
G75*
G03*
X171541421Y-90800000I-141421J0D01*
G01*
X155541421Y-69200000D02*
G75*
G03*
X155541421Y-69200000I-141421J0D01*
G01*
X150179000Y-67159000D02*
X150433000Y-67413000D01*
X152719000Y-64619000D02*
X152719000Y-65127000D01*
X152973000Y-64873000D02*
X152719000Y-64619000D01*
X150687000Y-67159000D02*
X150179000Y-67159000D01*
X152641421Y-60500000D02*
G75*
G03*
X152641421Y-60500000I-141421J0D01*
G01*
X153187380Y-65206333D02*
X154187380Y-64539666D01*
X153187380Y-64539666D02*
X154187380Y-65206333D01*
D11*
X163719523Y-85835714D02*
X164100476Y-85835714D01*
X163910000Y-86026190D02*
X163910000Y-85645238D01*
X164409523Y-117035714D02*
X164790476Y-117035714D01*
X164600000Y-117226190D02*
X164600000Y-116845238D01*
X130409523Y-116035714D02*
X130790476Y-116035714D01*
X130600000Y-116226190D02*
X130600000Y-115845238D01*
X133609523Y-111235714D02*
X133990476Y-111235714D01*
X133800000Y-111426190D02*
X133800000Y-111045238D01*
D10*
X150409190Y-67921000D02*
X150885380Y-67921000D01*
X149885380Y-68254333D02*
X150409190Y-67921000D01*
X149885380Y-67587666D01*
D12*
%TO.C,C12*%
X171040000Y-113507836D02*
X171040000Y-113292164D01*
X171760000Y-113507836D02*
X171760000Y-113292164D01*
%TO.C,R18*%
X125953641Y-107780000D02*
X125646359Y-107780000D01*
X125953641Y-107020000D02*
X125646359Y-107020000D01*
%TO.C,C28*%
X134960000Y-112507836D02*
X134960000Y-112292164D01*
X134240000Y-112507836D02*
X134240000Y-112292164D01*
%TO.C,C21*%
X166560000Y-103307836D02*
X166560000Y-103092164D01*
X165840000Y-103307836D02*
X165840000Y-103092164D01*
%TO.C,C26*%
X136560000Y-110092164D02*
X136560000Y-110307836D01*
X135840000Y-110092164D02*
X135840000Y-110307836D01*
%TO.C,C22*%
X137160000Y-96907836D02*
X137160000Y-96692164D01*
X136440000Y-96907836D02*
X136440000Y-96692164D01*
D13*
%TO.C,Q1*%
X154500000Y-60325000D02*
X155100000Y-60325000D01*
X154500000Y-63275000D02*
X154500000Y-60325000D01*
X155100000Y-63275000D02*
X154500000Y-63275000D01*
X152950000Y-60300000D02*
X154150000Y-60300000D01*
X155100000Y-60325000D02*
X155100000Y-63275000D01*
D12*
%TO.C,R8*%
X135380000Y-91753641D02*
X135380000Y-91446359D01*
X134620000Y-91753641D02*
X134620000Y-91446359D01*
%TO.C,C16*%
X161172164Y-87560000D02*
X161387836Y-87560000D01*
X161172164Y-86840000D02*
X161387836Y-86840000D01*
%TO.C,C49*%
X166090000Y-106740580D02*
X166090000Y-106459420D01*
X167110000Y-106740580D02*
X167110000Y-106459420D01*
%TO.C,F1*%
X160510000Y-62602064D02*
X160510000Y-61397936D01*
X158690000Y-62602064D02*
X158690000Y-61397936D01*
%TO.C,C50*%
X132592164Y-109860000D02*
X132807836Y-109860000D01*
X132592164Y-109140000D02*
X132807836Y-109140000D01*
%TO.C,C37*%
X159390000Y-86842164D02*
X159390000Y-87057836D01*
X160110000Y-86842164D02*
X160110000Y-87057836D01*
%TO.C,C20*%
X153507836Y-118760000D02*
X153292164Y-118760000D01*
X153507836Y-118040000D02*
X153292164Y-118040000D01*
%TO.C,R14*%
X142980000Y-86246359D02*
X142980000Y-86553641D01*
X142220000Y-86246359D02*
X142220000Y-86553641D01*
%TO.C,C15*%
X160600000Y-119335000D02*
X164510000Y-119335000D01*
X164510000Y-117465000D02*
X160600000Y-117465000D01*
X164510000Y-119335000D02*
X164510000Y-117465000D01*
%TO.C,Y1*%
X134050000Y-104600000D02*
X130750000Y-104600000D01*
X130750000Y-104600000D02*
X130750000Y-108600000D01*
D13*
%TO.C,J7*%
X132790000Y-94270000D02*
X123650000Y-94270000D01*
X123650000Y-91730000D02*
X126190000Y-91730000D01*
X123650000Y-94270000D02*
X123650000Y-91730000D01*
X123650000Y-93000000D02*
X117810000Y-93000000D01*
D12*
%TO.C,C41*%
X135760000Y-99565580D02*
X135760000Y-99284420D01*
X134740000Y-99565580D02*
X134740000Y-99284420D01*
%TO.C,R5*%
X175980000Y-113246359D02*
X175980000Y-113553641D01*
X175220000Y-113246359D02*
X175220000Y-113553641D01*
%TO.C,R32*%
X145220000Y-75746359D02*
X145220000Y-76053641D01*
X145980000Y-75746359D02*
X145980000Y-76053641D01*
%TO.C,R10*%
X146820000Y-86846359D02*
X146820000Y-87153641D01*
X147580000Y-86846359D02*
X147580000Y-87153641D01*
%TO.C,U3*%
X149750000Y-85600000D02*
X149750000Y-84900000D01*
X150500000Y-85600000D02*
X149750000Y-85600000D01*
X153650000Y-82200000D02*
X153650000Y-82900000D01*
X152900000Y-82200000D02*
X153650000Y-82200000D01*
X153650000Y-84900000D02*
X153650000Y-85600000D01*
X153650000Y-85600000D02*
X152900000Y-85600000D01*
X149900000Y-82200000D02*
G75*
G03*
X149900000Y-82200000I-150000J0D01*
G01*
X149810000Y-82200000D02*
G75*
G03*
X149810000Y-82200000I-60000J0D01*
G01*
%TO.C,R21*%
X168453641Y-93230000D02*
X168146359Y-93230000D01*
X168453641Y-92470000D02*
X168146359Y-92470000D01*
D13*
%TO.C,IC2*%
X139850000Y-90450000D02*
X163150000Y-90450000D01*
X139850000Y-113750000D02*
X139850000Y-90450000D01*
X163150000Y-90450000D02*
X163150000Y-113750000D01*
X163150000Y-113750000D02*
X139850000Y-113750000D01*
D14*
X138425000Y-90600000D02*
G75*
G03*
X138425000Y-90600000I-125000J0D01*
G01*
D12*
%TO.C,C17*%
X166560000Y-100692164D02*
X166560000Y-100907836D01*
X165840000Y-100692164D02*
X165840000Y-100907836D01*
%TO.C,J15*%
X178585000Y-73075000D02*
X178735000Y-73075000D01*
X162665000Y-76175000D02*
X166275000Y-76175000D01*
X162665000Y-62205000D02*
X176675000Y-62205000D01*
X178585000Y-73075000D02*
X178585000Y-66705000D01*
X178935000Y-73285000D02*
X178735000Y-73075000D01*
X178935000Y-63885000D02*
X178735000Y-63685000D01*
X173975000Y-76175000D02*
X175775000Y-76175000D01*
X178935000Y-75145000D02*
X178935000Y-73285000D01*
X178735000Y-63685000D02*
X178735000Y-63425000D01*
X178935000Y-75145000D02*
X178735000Y-75345000D01*
X178935000Y-66195000D02*
X178585000Y-66705000D01*
X167975000Y-76175000D02*
X172675000Y-76175000D01*
X162665000Y-64125000D02*
X162665000Y-62205000D01*
X162665000Y-75725000D02*
X162665000Y-76175000D01*
X178935000Y-63885000D02*
X178935000Y-66195000D01*
%TO.C,R27*%
X160296359Y-65680000D02*
X160603641Y-65680000D01*
X160296359Y-64920000D02*
X160603641Y-64920000D01*
%TO.C,C11*%
X148917164Y-75310000D02*
X149132836Y-75310000D01*
X148917164Y-76030000D02*
X149132836Y-76030000D01*
%TO.C,C51*%
X132492164Y-103190000D02*
X132707836Y-103190000D01*
X132492164Y-103910000D02*
X132707836Y-103910000D01*
%TO.C,C25*%
X126400000Y-115935000D02*
X130310000Y-115935000D01*
X130310000Y-114065000D02*
X126400000Y-114065000D01*
X130310000Y-115935000D02*
X130310000Y-114065000D01*
%TO.C,C36*%
X128360000Y-112692164D02*
X128360000Y-112907836D01*
X127640000Y-112692164D02*
X127640000Y-112907836D01*
%TO.C,R4*%
X167327064Y-52690000D02*
X165872936Y-52690000D01*
X167327064Y-54510000D02*
X165872936Y-54510000D01*
%TO.C,C34*%
X144260000Y-86542164D02*
X144260000Y-86757836D01*
X143540000Y-86542164D02*
X143540000Y-86757836D01*
%TO.C,C3*%
X152259420Y-55510000D02*
X152540580Y-55510000D01*
X152259420Y-54490000D02*
X152540580Y-54490000D01*
%TO.C,C4*%
X176690000Y-114259420D02*
X176690000Y-114540580D01*
X177710000Y-114259420D02*
X177710000Y-114540580D01*
%TO.C,C8*%
X147907836Y-77160000D02*
X147692164Y-77160000D01*
X147907836Y-76440000D02*
X147692164Y-76440000D01*
%TO.C,J1*%
X128710000Y-54140000D02*
X130200000Y-54140000D01*
X124290000Y-58910000D02*
X124740000Y-58910000D01*
X124290000Y-53190000D02*
X124290000Y-58910000D01*
X128710000Y-53190000D02*
X128710000Y-54140000D01*
X128260000Y-53190000D02*
X128710000Y-53190000D01*
X128260000Y-58910000D02*
X128710000Y-58910000D01*
X128710000Y-58910000D02*
X128710000Y-57960000D01*
X124740000Y-53190000D02*
X124290000Y-53190000D01*
%TO.C,D2*%
X172200000Y-95150000D02*
X172200000Y-98450000D01*
X172200000Y-95150000D02*
X177600000Y-95150000D01*
X172200000Y-98450000D02*
X177600000Y-98450000D01*
%TO.C,J3*%
X141965000Y-48110000D02*
X142915000Y-48110000D01*
X145485000Y-48110000D02*
X145485000Y-49600000D01*
X141965000Y-47660000D02*
X141965000Y-48110000D01*
X146435000Y-44140000D02*
X146435000Y-43690000D01*
X146435000Y-48110000D02*
X145485000Y-48110000D01*
X146435000Y-47660000D02*
X146435000Y-48110000D01*
X141965000Y-43690000D02*
X141965000Y-44140000D01*
X146435000Y-43690000D02*
X141965000Y-43690000D01*
%TO.C,C10*%
X151459420Y-76290000D02*
X151740580Y-76290000D01*
X151459420Y-77310000D02*
X151740580Y-77310000D01*
%TO.C,C30*%
X136960000Y-103107836D02*
X136960000Y-102892164D01*
X136240000Y-103107836D02*
X136240000Y-102892164D01*
%TO.C,Q2*%
X137330000Y-85040000D02*
X135300000Y-85040000D01*
X137330000Y-86700000D02*
X137330000Y-87360000D01*
X135920000Y-87360000D02*
X137330000Y-87360000D01*
X137330000Y-85040000D02*
X137330000Y-85700000D01*
%TO.C,J2*%
X177250000Y-60450000D02*
X179150000Y-60450000D01*
X179150000Y-60450000D02*
X179150000Y-51050000D01*
X177250000Y-51050000D02*
X179150000Y-51050000D01*
X173350000Y-60450000D02*
X175350000Y-60450000D01*
X173350000Y-51050000D02*
X175350000Y-51050000D01*
%TO.C,R30*%
X159846359Y-72730000D02*
X160153641Y-72730000D01*
X159846359Y-71970000D02*
X160153641Y-71970000D01*
%TO.C,R13*%
X131646359Y-114780000D02*
X131953641Y-114780000D01*
X131646359Y-114020000D02*
X131953641Y-114020000D01*
D13*
%TO.C,D3*%
X168225000Y-83400000D02*
X168225000Y-85950000D01*
X166975000Y-84250000D02*
X166975000Y-85950000D01*
%TO.C,J8*%
X123610000Y-89500000D02*
X117770000Y-89500000D01*
X123610000Y-90770000D02*
X123610000Y-88230000D01*
X132750000Y-90770000D02*
X123610000Y-90770000D01*
X123610000Y-88230000D02*
X126150000Y-88230000D01*
D12*
%TO.C,R28*%
X159796359Y-67430000D02*
X160103641Y-67430000D01*
X159796359Y-66670000D02*
X160103641Y-66670000D01*
%TO.C,R3*%
X167127064Y-56490000D02*
X165672936Y-56490000D01*
X167127064Y-58310000D02*
X165672936Y-58310000D01*
%TO.C,J13*%
X176287500Y-92300000D02*
X174437500Y-92300000D01*
X178837500Y-84500000D02*
X178587500Y-84500000D01*
X178837500Y-92300000D02*
X178587500Y-92300000D01*
X173887500Y-90100000D02*
X174337500Y-90100000D01*
X176287500Y-84500000D02*
X174437500Y-84500000D01*
X173887500Y-90100000D02*
X173887500Y-89650000D01*
X174437500Y-84500000D02*
X174437500Y-84950000D01*
X174437500Y-92300000D02*
X174437500Y-91850000D01*
%TO.C,FB2*%
X135562779Y-114040000D02*
X135237221Y-114040000D01*
X135562779Y-115060000D02*
X135237221Y-115060000D01*
%TO.C,C9*%
X169840000Y-113507836D02*
X169840000Y-113292164D01*
X170560000Y-113507836D02*
X170560000Y-113292164D01*
%TO.C,FB3*%
X171160000Y-85187221D02*
X171160000Y-85512779D01*
X170140000Y-85187221D02*
X170140000Y-85512779D01*
D13*
%TO.C,J6*%
X123610000Y-97520000D02*
X123610000Y-94980000D01*
X123610000Y-96250000D02*
X117770000Y-96250000D01*
X132750000Y-97520000D02*
X123610000Y-97520000D01*
X123610000Y-94980000D02*
X126150000Y-94980000D01*
D12*
%TO.C,U2*%
X168790000Y-101240000D02*
X168640000Y-101240000D01*
X178960000Y-101240000D02*
X178960000Y-111160000D01*
X168790000Y-111160000D02*
X168640000Y-111160000D01*
X178810000Y-100550000D02*
X178810000Y-101240000D01*
X178960000Y-101240000D02*
X178810000Y-101240000D01*
X178960000Y-111160000D02*
X178810000Y-111160000D01*
X168640000Y-101240000D02*
X168640000Y-111160000D01*
%TO.C,C46*%
X141810000Y-86540580D02*
X141810000Y-86259420D01*
X140790000Y-86540580D02*
X140790000Y-86259420D01*
%TO.C,J14*%
X153493471Y-70960000D02*
X153636529Y-70960000D01*
X148425000Y-71777530D02*
X148425000Y-72600000D01*
X153440000Y-69070000D02*
X153440000Y-69636529D01*
X148425000Y-70507530D02*
X148425000Y-71162470D01*
X154960000Y-69070000D02*
X154960000Y-70200000D01*
X154895000Y-71777530D02*
X154895000Y-72600000D01*
X154200000Y-69070000D02*
X154960000Y-69070000D01*
X154763471Y-70960000D02*
X154895000Y-70960000D01*
X154895000Y-72600000D02*
X148425000Y-72600000D01*
X154895000Y-70960000D02*
X154895000Y-71162470D01*
X153440000Y-69070000D02*
X148425000Y-69070000D01*
X148425000Y-69070000D02*
X148425000Y-69892470D01*
X153440000Y-70763471D02*
X153440000Y-70906529D01*
%TO.C,R6*%
X169853641Y-99730000D02*
X169546359Y-99730000D01*
X169853641Y-98970000D02*
X169546359Y-98970000D01*
%TO.C,U4*%
X170100000Y-87340000D02*
X170900000Y-87340000D01*
X170100000Y-90460000D02*
X169300000Y-90460000D01*
X170100000Y-87340000D02*
X169300000Y-87340000D01*
X170100000Y-90460000D02*
X171900000Y-90460000D01*
%TO.C,R1*%
X163662742Y-45877500D02*
X164137258Y-45877500D01*
X163662742Y-46922500D02*
X164137258Y-46922500D01*
%TO.C,R12*%
X133846359Y-83780000D02*
X134153641Y-83780000D01*
X133846359Y-83020000D02*
X134153641Y-83020000D01*
%TO.C,FB1*%
X150399622Y-62960000D02*
X149600378Y-62960000D01*
X150399622Y-61840000D02*
X149600378Y-61840000D01*
%TO.C,C52*%
X145960000Y-66407836D02*
X145960000Y-66192164D01*
X145240000Y-66407836D02*
X145240000Y-66192164D01*
%TO.C,R17*%
X125646359Y-106380000D02*
X125953641Y-106380000D01*
X125646359Y-105620000D02*
X125953641Y-105620000D01*
%TO.C,L2*%
X173650200Y-113750000D02*
X173449800Y-113750000D01*
X173650200Y-113030000D02*
X173449800Y-113030000D01*
%TO.C,R29*%
X160196359Y-69380000D02*
X160503641Y-69380000D01*
X160196359Y-68620000D02*
X160503641Y-68620000D01*
D15*
%TO.C,U1*%
X143060000Y-83150000D02*
X143700000Y-83150000D01*
X143700000Y-82670000D02*
X143700000Y-83150000D01*
X141500000Y-82670000D02*
X141500000Y-83150000D01*
X141500000Y-80450000D02*
X142140000Y-80450000D01*
X141500000Y-83150000D02*
X142140000Y-83150000D01*
X143060000Y-80450000D02*
X143700000Y-80450000D01*
X141500000Y-80450000D02*
X141500000Y-80930000D01*
D12*
%TO.C,C48*%
X166240000Y-110692164D02*
X166240000Y-110907836D01*
X166960000Y-110692164D02*
X166960000Y-110907836D01*
%TO.C,C27*%
X133510000Y-111465000D02*
X129600000Y-111465000D01*
X133510000Y-113335000D02*
X133510000Y-111465000D01*
X129600000Y-113335000D02*
X133510000Y-113335000D01*
%TO.C,C7*%
X171040000Y-98707836D02*
X171040000Y-98492164D01*
X171760000Y-98707836D02*
X171760000Y-98492164D01*
D13*
%TO.C,J4*%
X169100000Y-121175000D02*
X171700000Y-121175000D01*
X167225000Y-116700000D02*
X167225000Y-119300000D01*
X173575000Y-116700000D02*
X173575000Y-119300000D01*
X169100000Y-114825000D02*
X171700000Y-114825000D01*
D12*
%TO.C,C14*%
X151640000Y-80707836D02*
X151640000Y-80492164D01*
X152360000Y-80707836D02*
X152360000Y-80492164D01*
D13*
%TO.C,IC1*%
X142925000Y-52920000D02*
X144450000Y-52920000D01*
D12*
%TO.C,C47*%
X163910000Y-83615000D02*
X160000000Y-83615000D01*
X163910000Y-85485000D02*
X163910000Y-83615000D01*
X160000000Y-85485000D02*
X163910000Y-85485000D01*
%TO.C,C40*%
X162507836Y-119790000D02*
X162292164Y-119790000D01*
X162507836Y-120510000D02*
X162292164Y-120510000D01*
%TO.C,R11*%
X136553641Y-83420000D02*
X136246359Y-83420000D01*
X136553641Y-84180000D02*
X136246359Y-84180000D01*
%TO.C,J16*%
X141800000Y-121530000D02*
X140470000Y-121530000D01*
X140470000Y-121530000D02*
X140470000Y-120200000D01*
X143070000Y-118870000D02*
X148210000Y-118870000D01*
X143070000Y-121530000D02*
X143070000Y-118870000D01*
X148210000Y-121530000D02*
X148210000Y-118870000D01*
X143070000Y-121530000D02*
X148210000Y-121530000D01*
%TO.C,R16*%
X146120000Y-84053641D02*
X146120000Y-83746359D01*
X146880000Y-84053641D02*
X146880000Y-83746359D01*
D13*
%TO.C,J5*%
X132750000Y-101020000D02*
X123610000Y-101020000D01*
X123610000Y-98480000D02*
X126150000Y-98480000D01*
X123610000Y-99750000D02*
X117770000Y-99750000D01*
X123610000Y-101020000D02*
X123610000Y-98480000D01*
D12*
%TO.C,C45*%
X158259420Y-116490000D02*
X158540580Y-116490000D01*
X158259420Y-117510000D02*
X158540580Y-117510000D01*
D13*
%TO.C,J12*%
X123560000Y-86000000D02*
X117720000Y-86000000D01*
X132700000Y-87270000D02*
X123560000Y-87270000D01*
X123560000Y-87270000D02*
X123560000Y-84730000D01*
X123560000Y-84730000D02*
X126100000Y-84730000D01*
D12*
%TO.C,C35*%
X153507836Y-116640000D02*
X153292164Y-116640000D01*
X153507836Y-117360000D02*
X153292164Y-117360000D01*
%TO.C,C1*%
X140190000Y-54259420D02*
X140190000Y-54540580D01*
X141210000Y-54259420D02*
X141210000Y-54540580D01*
%TO.C,D1*%
X166215000Y-45665000D02*
X166215000Y-47135000D01*
X166215000Y-47135000D02*
X168500000Y-47135000D01*
X168500000Y-45665000D02*
X166215000Y-45665000D01*
%TO.C,R31*%
X160730000Y-74896359D02*
X160730000Y-75203641D01*
X159970000Y-74896359D02*
X159970000Y-75203641D01*
%TO.C,R15*%
X144820000Y-83746359D02*
X144820000Y-84053641D01*
X145580000Y-83746359D02*
X145580000Y-84053641D01*
%TO.C,R26*%
X135953641Y-107180000D02*
X135646359Y-107180000D01*
X135953641Y-106420000D02*
X135646359Y-106420000D01*
%TO.C,C23*%
X146907836Y-117260000D02*
X146692164Y-117260000D01*
X146907836Y-116540000D02*
X146692164Y-116540000D01*
%TO.C,C6*%
X139240000Y-81907836D02*
X139240000Y-81692164D01*
X139960000Y-81907836D02*
X139960000Y-81692164D01*
%TO.C,C53*%
X140640580Y-56590000D02*
X140359420Y-56590000D01*
X140640580Y-57610000D02*
X140359420Y-57610000D01*
%TO.C,C19*%
X136440000Y-94507836D02*
X136440000Y-94292164D01*
X137160000Y-94507836D02*
X137160000Y-94292164D01*
%TO.C,FB4*%
X134690000Y-96037221D02*
X134690000Y-96362779D01*
X135710000Y-96037221D02*
X135710000Y-96362779D01*
%TO.C,C2*%
X155859420Y-53090000D02*
X156140580Y-53090000D01*
X155859420Y-54110000D02*
X156140580Y-54110000D01*
%TO.C,C13*%
X153492164Y-80690000D02*
X153707836Y-80690000D01*
X153492164Y-81410000D02*
X153707836Y-81410000D01*
%TO.C,C38*%
X149907836Y-116960000D02*
X149692164Y-116960000D01*
X149907836Y-116240000D02*
X149692164Y-116240000D01*
%TO.C,C24*%
X149092164Y-87560000D02*
X149307836Y-87560000D01*
X149092164Y-86840000D02*
X149307836Y-86840000D01*
%TO.C,C29*%
X154692164Y-87460000D02*
X154907836Y-87460000D01*
X154692164Y-86740000D02*
X154907836Y-86740000D01*
%TO.C,C32*%
X140260000Y-86507836D02*
X140260000Y-86292164D01*
X139540000Y-86507836D02*
X139540000Y-86292164D01*
%TO.C,C39*%
X142107836Y-117460000D02*
X141892164Y-117460000D01*
X142107836Y-116740000D02*
X141892164Y-116740000D01*
%TO.C,R9*%
X135020000Y-89353641D02*
X135020000Y-89046359D01*
X135780000Y-89353641D02*
X135780000Y-89046359D01*
%TO.C,C44*%
X166090000Y-97259420D02*
X166090000Y-97540580D01*
X167110000Y-97259420D02*
X167110000Y-97540580D01*
%TO.C,R7*%
X136580000Y-92153641D02*
X136580000Y-91846359D01*
X135820000Y-92153641D02*
X135820000Y-91846359D01*
%TO.C,C5*%
X137720000Y-81907836D02*
X137720000Y-81692164D01*
X138440000Y-81907836D02*
X138440000Y-81692164D01*
D13*
%TO.C,S2*%
X145800000Y-68300000D02*
X145800000Y-69700000D01*
X140400000Y-71950000D02*
X140400000Y-70050000D01*
X146400000Y-71950000D02*
X140400000Y-71950000D01*
X140400000Y-70050000D02*
X146400000Y-70050000D01*
X146400000Y-70050000D02*
X146400000Y-71950000D01*
D12*
%TO.C,C54*%
X152359420Y-56890000D02*
X152640580Y-56890000D01*
X152359420Y-57910000D02*
X152640580Y-57910000D01*
D15*
%TO.C,S1*%
X136487500Y-64800000D02*
X136487500Y-62800000D01*
X142487500Y-64800000D02*
X142487500Y-62800000D01*
X137487500Y-60800000D02*
X141487500Y-60800000D01*
X137487500Y-66800000D02*
X141487500Y-66800000D01*
D12*
%TO.C,C31*%
X167840000Y-96692164D02*
X167840000Y-96907836D01*
X168560000Y-96692164D02*
X168560000Y-96907836D01*
%TD*%
M02*
