%TF.GenerationSoftware,KiCad,Pcbnew,(5.99.0-10089-gf88d39b4f0)*%
%TF.CreationDate,2021-04-25T16:59:05+01:00*%
%TF.ProjectId,CM4,434d342e-6b69-4636-9164-5f7063625858,v01*%
%TF.SameCoordinates,Original*%
%TF.FileFunction,Legend,Bot*%
%TF.FilePolarity,Positive*%
%FSLAX46Y46*%
G04 Gerber Fmt 4.6, Leading zero omitted, Abs format (unit mm)*
G04 Created by KiCad (PCBNEW (5.99.0-10089-gf88d39b4f0)) date 2021-04-25 16:59:05*
%MOMM*%
%LPD*%
G01*
G04 APERTURE LIST*
%ADD10C,0.062500*%
%ADD11C,0.075000*%
%ADD12C,0.150000*%
%ADD13C,0.120000*%
G04 APERTURE END LIST*
D10*
X178475000Y-91990476D02*
X178463095Y-92014285D01*
X178463095Y-92050000D01*
X178475000Y-92085714D01*
X178498809Y-92109523D01*
X178522619Y-92121428D01*
X178570238Y-92133333D01*
X178605952Y-92133333D01*
X178653571Y-92121428D01*
X178677380Y-92109523D01*
X178701190Y-92085714D01*
X178713095Y-92050000D01*
X178713095Y-92026190D01*
X178701190Y-91990476D01*
X178689285Y-91978571D01*
X178605952Y-91978571D01*
X178605952Y-92026190D01*
X178713095Y-91871428D02*
X178463095Y-91871428D01*
X178713095Y-91728571D01*
X178463095Y-91728571D01*
X178713095Y-91609523D02*
X178463095Y-91609523D01*
X178463095Y-91550000D01*
X178475000Y-91514285D01*
X178498809Y-91490476D01*
X178522619Y-91478571D01*
X178570238Y-91466666D01*
X178605952Y-91466666D01*
X178653571Y-91478571D01*
X178677380Y-91490476D01*
X178701190Y-91514285D01*
X178713095Y-91550000D01*
X178713095Y-91609523D01*
X123675000Y-95290476D02*
X123663095Y-95314285D01*
X123663095Y-95350000D01*
X123675000Y-95385714D01*
X123698809Y-95409523D01*
X123722619Y-95421428D01*
X123770238Y-95433333D01*
X123805952Y-95433333D01*
X123853571Y-95421428D01*
X123877380Y-95409523D01*
X123901190Y-95385714D01*
X123913095Y-95350000D01*
X123913095Y-95326190D01*
X123901190Y-95290476D01*
X123889285Y-95278571D01*
X123805952Y-95278571D01*
X123805952Y-95326190D01*
X123913095Y-95171428D02*
X123663095Y-95171428D01*
X123913095Y-95028571D01*
X123663095Y-95028571D01*
X123913095Y-94909523D02*
X123663095Y-94909523D01*
X123663095Y-94850000D01*
X123675000Y-94814285D01*
X123698809Y-94790476D01*
X123722619Y-94778571D01*
X123770238Y-94766666D01*
X123805952Y-94766666D01*
X123853571Y-94778571D01*
X123877380Y-94790476D01*
X123901190Y-94814285D01*
X123913095Y-94850000D01*
X123913095Y-94909523D01*
X178463095Y-94490476D02*
X178463095Y-94347619D01*
X178713095Y-94419047D02*
X178463095Y-94419047D01*
X178463095Y-94288095D02*
X178713095Y-94121428D01*
X178463095Y-94121428D02*
X178713095Y-94288095D01*
D11*
X165521428Y-125364285D02*
X165535714Y-125321428D01*
X165535714Y-125250000D01*
X165521428Y-125221428D01*
X165507142Y-125207142D01*
X165478571Y-125192857D01*
X165450000Y-125192857D01*
X165421428Y-125207142D01*
X165407142Y-125221428D01*
X165392857Y-125250000D01*
X165378571Y-125307142D01*
X165364285Y-125335714D01*
X165350000Y-125350000D01*
X165321428Y-125364285D01*
X165292857Y-125364285D01*
X165264285Y-125350000D01*
X165250000Y-125335714D01*
X165235714Y-125307142D01*
X165235714Y-125235714D01*
X165250000Y-125192857D01*
X165535714Y-125064285D02*
X165235714Y-125064285D01*
X165235714Y-124992857D01*
X165250000Y-124950000D01*
X165278571Y-124921428D01*
X165307142Y-124907142D01*
X165364285Y-124892857D01*
X165407142Y-124892857D01*
X165464285Y-124907142D01*
X165492857Y-124921428D01*
X165521428Y-124950000D01*
X165535714Y-124992857D01*
X165535714Y-125064285D01*
X165450000Y-124778571D02*
X165450000Y-124635714D01*
X165535714Y-124807142D02*
X165235714Y-124707142D01*
X165535714Y-124607142D01*
X164421428Y-125357142D02*
X164435714Y-125314285D01*
X164435714Y-125242857D01*
X164421428Y-125214285D01*
X164407142Y-125200000D01*
X164378571Y-125185714D01*
X164350000Y-125185714D01*
X164321428Y-125200000D01*
X164307142Y-125214285D01*
X164292857Y-125242857D01*
X164278571Y-125300000D01*
X164264285Y-125328571D01*
X164250000Y-125342857D01*
X164221428Y-125357142D01*
X164192857Y-125357142D01*
X164164285Y-125342857D01*
X164150000Y-125328571D01*
X164135714Y-125300000D01*
X164135714Y-125228571D01*
X164150000Y-125185714D01*
X164407142Y-124885714D02*
X164421428Y-124900000D01*
X164435714Y-124942857D01*
X164435714Y-124971428D01*
X164421428Y-125014285D01*
X164392857Y-125042857D01*
X164364285Y-125057142D01*
X164307142Y-125071428D01*
X164264285Y-125071428D01*
X164207142Y-125057142D01*
X164178571Y-125042857D01*
X164150000Y-125014285D01*
X164135714Y-124971428D01*
X164135714Y-124942857D01*
X164150000Y-124900000D01*
X164164285Y-124885714D01*
X164435714Y-124614285D02*
X164435714Y-124757142D01*
X164135714Y-124757142D01*
D10*
X123913095Y-97741666D02*
X123794047Y-97825000D01*
X123913095Y-97884523D02*
X123663095Y-97884523D01*
X123663095Y-97789285D01*
X123675000Y-97765476D01*
X123686904Y-97753571D01*
X123710714Y-97741666D01*
X123746428Y-97741666D01*
X123770238Y-97753571D01*
X123782142Y-97765476D01*
X123794047Y-97789285D01*
X123794047Y-97884523D01*
X123663095Y-97658333D02*
X123913095Y-97491666D01*
X123663095Y-97491666D02*
X123913095Y-97658333D01*
X178713095Y-97210714D02*
X178463095Y-97210714D01*
X178713095Y-97067857D01*
X178463095Y-97067857D01*
X178713095Y-96805952D02*
X178594047Y-96889285D01*
X178713095Y-96948809D02*
X178463095Y-96948809D01*
X178463095Y-96853571D01*
X178475000Y-96829761D01*
X178486904Y-96817857D01*
X178510714Y-96805952D01*
X178546428Y-96805952D01*
X178570238Y-96817857D01*
X178582142Y-96829761D01*
X178594047Y-96853571D01*
X178594047Y-96948809D01*
X178701190Y-96710714D02*
X178713095Y-96675000D01*
X178713095Y-96615476D01*
X178701190Y-96591666D01*
X178689285Y-96579761D01*
X178665476Y-96567857D01*
X178641666Y-96567857D01*
X178617857Y-96579761D01*
X178605952Y-96591666D01*
X178594047Y-96615476D01*
X178582142Y-96663095D01*
X178570238Y-96686904D01*
X178558333Y-96698809D01*
X178534523Y-96710714D01*
X178510714Y-96710714D01*
X178486904Y-96698809D01*
X178475000Y-96686904D01*
X178463095Y-96663095D01*
X178463095Y-96603571D01*
X178475000Y-96567857D01*
X178463095Y-96496428D02*
X178463095Y-96353571D01*
X178713095Y-96425000D02*
X178463095Y-96425000D01*
X153902380Y-117601190D02*
X153938095Y-117613095D01*
X153997619Y-117613095D01*
X154021428Y-117601190D01*
X154033333Y-117589285D01*
X154045238Y-117565476D01*
X154045238Y-117541666D01*
X154033333Y-117517857D01*
X154021428Y-117505952D01*
X153997619Y-117494047D01*
X153950000Y-117482142D01*
X153926190Y-117470238D01*
X153914285Y-117458333D01*
X153902380Y-117434523D01*
X153902380Y-117410714D01*
X153914285Y-117386904D01*
X153926190Y-117375000D01*
X153950000Y-117363095D01*
X154009523Y-117363095D01*
X154045238Y-117375000D01*
X154295238Y-117589285D02*
X154283333Y-117601190D01*
X154247619Y-117613095D01*
X154223809Y-117613095D01*
X154188095Y-117601190D01*
X154164285Y-117577380D01*
X154152380Y-117553571D01*
X154140476Y-117505952D01*
X154140476Y-117470238D01*
X154152380Y-117422619D01*
X154164285Y-117398809D01*
X154188095Y-117375000D01*
X154223809Y-117363095D01*
X154247619Y-117363095D01*
X154283333Y-117375000D01*
X154295238Y-117386904D01*
X154521428Y-117613095D02*
X154402380Y-117613095D01*
X154402380Y-117363095D01*
X156409523Y-117375000D02*
X156385714Y-117363095D01*
X156350000Y-117363095D01*
X156314285Y-117375000D01*
X156290476Y-117398809D01*
X156278571Y-117422619D01*
X156266666Y-117470238D01*
X156266666Y-117505952D01*
X156278571Y-117553571D01*
X156290476Y-117577380D01*
X156314285Y-117601190D01*
X156350000Y-117613095D01*
X156373809Y-117613095D01*
X156409523Y-117601190D01*
X156421428Y-117589285D01*
X156421428Y-117505952D01*
X156373809Y-117505952D01*
X156528571Y-117613095D02*
X156528571Y-117363095D01*
X156671428Y-117613095D01*
X156671428Y-117363095D01*
X156790476Y-117613095D02*
X156790476Y-117363095D01*
X156850000Y-117363095D01*
X156885714Y-117375000D01*
X156909523Y-117398809D01*
X156921428Y-117422619D01*
X156933333Y-117470238D01*
X156933333Y-117505952D01*
X156921428Y-117553571D01*
X156909523Y-117577380D01*
X156885714Y-117601190D01*
X156850000Y-117613095D01*
X156790476Y-117613095D01*
X128950000Y-81880952D02*
X128926190Y-81928571D01*
X128926190Y-82000000D01*
X128950000Y-82071428D01*
X128997619Y-82119047D01*
X129045238Y-82142857D01*
X129140476Y-82166666D01*
X129211904Y-82166666D01*
X129307142Y-82142857D01*
X129354761Y-82119047D01*
X129402380Y-82071428D01*
X129426190Y-82000000D01*
X129426190Y-81952380D01*
X129402380Y-81880952D01*
X129378571Y-81857142D01*
X129211904Y-81857142D01*
X129211904Y-81952380D01*
X129426190Y-81642857D02*
X128926190Y-81642857D01*
X129426190Y-81357142D01*
X128926190Y-81357142D01*
X129426190Y-81119047D02*
X128926190Y-81119047D01*
X128926190Y-81000000D01*
X128950000Y-80928571D01*
X128997619Y-80880952D01*
X129045238Y-80857142D01*
X129140476Y-80833333D01*
X129211904Y-80833333D01*
X129307142Y-80857142D01*
X129354761Y-80880952D01*
X129402380Y-80928571D01*
X129426190Y-81000000D01*
X129426190Y-81119047D01*
D12*
X146261904Y-64157142D02*
X146309523Y-64204761D01*
X146452380Y-64252380D01*
X146547619Y-64252380D01*
X146690476Y-64204761D01*
X146785714Y-64109523D01*
X146833333Y-64014285D01*
X146880952Y-63823809D01*
X146880952Y-63680952D01*
X146833333Y-63490476D01*
X146785714Y-63395238D01*
X146690476Y-63300000D01*
X146547619Y-63252380D01*
X146452380Y-63252380D01*
X146309523Y-63300000D01*
X146261904Y-63347619D01*
X145833333Y-64252380D02*
X145833333Y-63252380D01*
X145500000Y-63966666D01*
X145166666Y-63252380D01*
X145166666Y-64252380D01*
X144261904Y-63585714D02*
X144261904Y-64252380D01*
X144500000Y-63204761D02*
X144738095Y-63919047D01*
X144119047Y-63919047D01*
X142642857Y-63728571D02*
X142976190Y-63728571D01*
X142976190Y-64252380D02*
X142976190Y-63252380D01*
X142500000Y-63252380D01*
X141547619Y-64157142D02*
X141595238Y-64204761D01*
X141738095Y-64252380D01*
X141833333Y-64252380D01*
X141976190Y-64204761D01*
X142071428Y-64109523D01*
X142119047Y-64014285D01*
X142166666Y-63823809D01*
X142166666Y-63680952D01*
X142119047Y-63490476D01*
X142071428Y-63395238D01*
X141976190Y-63300000D01*
X141833333Y-63252380D01*
X141738095Y-63252380D01*
X141595238Y-63300000D01*
X141547619Y-63347619D01*
X141166666Y-64204761D02*
X141023809Y-64252380D01*
X140785714Y-64252380D01*
X140690476Y-64204761D01*
X140642857Y-64157142D01*
X140595238Y-64061904D01*
X140595238Y-63966666D01*
X140642857Y-63871428D01*
X140690476Y-63823809D01*
X140785714Y-63776190D01*
X140976190Y-63728571D01*
X141071428Y-63680952D01*
X141119047Y-63633333D01*
X141166666Y-63538095D01*
X141166666Y-63442857D01*
X141119047Y-63347619D01*
X141071428Y-63300000D01*
X140976190Y-63252380D01*
X140738095Y-63252380D01*
X140595238Y-63300000D01*
X139166666Y-64585714D02*
X139166666Y-63157142D01*
X137119047Y-64252380D02*
X137452380Y-63776190D01*
X137690476Y-64252380D02*
X137690476Y-63252380D01*
X137309523Y-63252380D01*
X137214285Y-63300000D01*
X137166666Y-63347619D01*
X137119047Y-63442857D01*
X137119047Y-63585714D01*
X137166666Y-63680952D01*
X137214285Y-63728571D01*
X137309523Y-63776190D01*
X137690476Y-63776190D01*
X136309523Y-64204761D02*
X136404761Y-64252380D01*
X136595238Y-64252380D01*
X136690476Y-64204761D01*
X136738095Y-64109523D01*
X136738095Y-63728571D01*
X136690476Y-63633333D01*
X136595238Y-63585714D01*
X136404761Y-63585714D01*
X136309523Y-63633333D01*
X136261904Y-63728571D01*
X136261904Y-63823809D01*
X136738095Y-63919047D01*
X135928571Y-63585714D02*
X135690476Y-64252380D01*
X135452380Y-63585714D01*
X134547619Y-64252380D02*
X135119047Y-64252380D01*
X134833333Y-64252380D02*
X134833333Y-63252380D01*
X134928571Y-63395238D01*
X135023809Y-63490476D01*
X135119047Y-63538095D01*
X134119047Y-64157142D02*
X134071428Y-64204761D01*
X134119047Y-64252380D01*
X134166666Y-64204761D01*
X134119047Y-64157142D01*
X134119047Y-64252380D01*
X133119047Y-64252380D02*
X133690476Y-64252380D01*
X133404761Y-64252380D02*
X133404761Y-63252380D01*
X133500000Y-63395238D01*
X133595238Y-63490476D01*
X133690476Y-63538095D01*
D11*
X126750000Y-114528571D02*
X126735714Y-114557142D01*
X126735714Y-114600000D01*
X126750000Y-114642857D01*
X126778571Y-114671428D01*
X126807142Y-114685714D01*
X126864285Y-114700000D01*
X126907142Y-114700000D01*
X126964285Y-114685714D01*
X126992857Y-114671428D01*
X127021428Y-114642857D01*
X127035714Y-114600000D01*
X127035714Y-114571428D01*
X127021428Y-114528571D01*
X127007142Y-114514285D01*
X126907142Y-114514285D01*
X126907142Y-114571428D01*
X127035714Y-114385714D02*
X126735714Y-114385714D01*
X127035714Y-114214285D01*
X126735714Y-114214285D01*
X127035714Y-114071428D02*
X126735714Y-114071428D01*
X126735714Y-114000000D01*
X126750000Y-113957142D01*
X126778571Y-113928571D01*
X126807142Y-113914285D01*
X126864285Y-113900000D01*
X126907142Y-113900000D01*
X126964285Y-113914285D01*
X126992857Y-113928571D01*
X127021428Y-113957142D01*
X127035714Y-114000000D01*
X127035714Y-114071428D01*
X163235714Y-125442857D02*
X163235714Y-125257142D01*
X163350000Y-125357142D01*
X163350000Y-125314285D01*
X163364285Y-125285714D01*
X163378571Y-125271428D01*
X163407142Y-125257142D01*
X163478571Y-125257142D01*
X163507142Y-125271428D01*
X163521428Y-125285714D01*
X163535714Y-125314285D01*
X163535714Y-125400000D01*
X163521428Y-125428571D01*
X163507142Y-125442857D01*
X163507142Y-125128571D02*
X163521428Y-125114285D01*
X163535714Y-125128571D01*
X163521428Y-125142857D01*
X163507142Y-125128571D01*
X163535714Y-125128571D01*
X163235714Y-125014285D02*
X163235714Y-124828571D01*
X163350000Y-124928571D01*
X163350000Y-124885714D01*
X163364285Y-124857142D01*
X163378571Y-124842857D01*
X163407142Y-124828571D01*
X163478571Y-124828571D01*
X163507142Y-124842857D01*
X163521428Y-124857142D01*
X163535714Y-124885714D01*
X163535714Y-124971428D01*
X163521428Y-125000000D01*
X163507142Y-125014285D01*
X163235714Y-124742857D02*
X163535714Y-124642857D01*
X163235714Y-124542857D01*
D10*
X155096428Y-117601190D02*
X155132142Y-117613095D01*
X155191666Y-117613095D01*
X155215476Y-117601190D01*
X155227380Y-117589285D01*
X155239285Y-117565476D01*
X155239285Y-117541666D01*
X155227380Y-117517857D01*
X155215476Y-117505952D01*
X155191666Y-117494047D01*
X155144047Y-117482142D01*
X155120238Y-117470238D01*
X155108333Y-117458333D01*
X155096428Y-117434523D01*
X155096428Y-117410714D01*
X155108333Y-117386904D01*
X155120238Y-117375000D01*
X155144047Y-117363095D01*
X155203571Y-117363095D01*
X155239285Y-117375000D01*
X155346428Y-117613095D02*
X155346428Y-117363095D01*
X155405952Y-117363095D01*
X155441666Y-117375000D01*
X155465476Y-117398809D01*
X155477380Y-117422619D01*
X155489285Y-117470238D01*
X155489285Y-117505952D01*
X155477380Y-117553571D01*
X155465476Y-117577380D01*
X155441666Y-117601190D01*
X155405952Y-117613095D01*
X155346428Y-117613095D01*
X155584523Y-117541666D02*
X155703571Y-117541666D01*
X155560714Y-117613095D02*
X155644047Y-117363095D01*
X155727380Y-117613095D01*
X178713095Y-95541666D02*
X178594047Y-95625000D01*
X178713095Y-95684523D02*
X178463095Y-95684523D01*
X178463095Y-95589285D01*
X178475000Y-95565476D01*
X178486904Y-95553571D01*
X178510714Y-95541666D01*
X178546428Y-95541666D01*
X178570238Y-95553571D01*
X178582142Y-95565476D01*
X178594047Y-95589285D01*
X178594047Y-95684523D01*
X178463095Y-95458333D02*
X178713095Y-95291666D01*
X178463095Y-95291666D02*
X178713095Y-95458333D01*
X123663095Y-100490476D02*
X123663095Y-100347619D01*
X123913095Y-100419047D02*
X123663095Y-100419047D01*
X123663095Y-100288095D02*
X123913095Y-100121428D01*
X123663095Y-100121428D02*
X123913095Y-100288095D01*
D12*
X153523809Y-121552380D02*
X153523809Y-120552380D01*
X153952380Y-120647619D02*
X154000000Y-120600000D01*
X154095238Y-120552380D01*
X154333333Y-120552380D01*
X154428571Y-120600000D01*
X154476190Y-120647619D01*
X154523809Y-120742857D01*
X154523809Y-120838095D01*
X154476190Y-120980952D01*
X153904761Y-121552380D01*
X154523809Y-121552380D01*
X155523809Y-121457142D02*
X155476190Y-121504761D01*
X155333333Y-121552380D01*
X155238095Y-121552380D01*
X155095238Y-121504761D01*
X155000000Y-121409523D01*
X154952380Y-121314285D01*
X154904761Y-121123809D01*
X154904761Y-120980952D01*
X154952380Y-120790476D01*
X155000000Y-120695238D01*
X155095238Y-120600000D01*
X155238095Y-120552380D01*
X155333333Y-120552380D01*
X155476190Y-120600000D01*
X155523809Y-120647619D01*
D10*
X178713095Y-93409523D02*
X178463095Y-93409523D01*
X178463095Y-93314285D01*
X178475000Y-93290476D01*
X178486904Y-93278571D01*
X178510714Y-93266666D01*
X178546428Y-93266666D01*
X178570238Y-93278571D01*
X178582142Y-93290476D01*
X178594047Y-93314285D01*
X178594047Y-93409523D01*
X178713095Y-93159523D02*
X178463095Y-93159523D01*
X178463095Y-93064285D01*
X178475000Y-93040476D01*
X178486904Y-93028571D01*
X178510714Y-93016666D01*
X178546428Y-93016666D01*
X178570238Y-93028571D01*
X178582142Y-93040476D01*
X178594047Y-93064285D01*
X178594047Y-93159523D01*
X178701190Y-92921428D02*
X178713095Y-92885714D01*
X178713095Y-92826190D01*
X178701190Y-92802380D01*
X178689285Y-92790476D01*
X178665476Y-92778571D01*
X178641666Y-92778571D01*
X178617857Y-92790476D01*
X178605952Y-92802380D01*
X178594047Y-92826190D01*
X178582142Y-92873809D01*
X178570238Y-92897619D01*
X178558333Y-92909523D01*
X178534523Y-92921428D01*
X178510714Y-92921428D01*
X178486904Y-92909523D01*
X178475000Y-92897619D01*
X178463095Y-92873809D01*
X178463095Y-92814285D01*
X178475000Y-92778571D01*
X132302380Y-82011904D02*
X132326190Y-81940476D01*
X132326190Y-81821428D01*
X132302380Y-81773809D01*
X132278571Y-81750000D01*
X132230952Y-81726190D01*
X132183333Y-81726190D01*
X132135714Y-81750000D01*
X132111904Y-81773809D01*
X132088095Y-81821428D01*
X132064285Y-81916666D01*
X132040476Y-81964285D01*
X132016666Y-81988095D01*
X131969047Y-82011904D01*
X131921428Y-82011904D01*
X131873809Y-81988095D01*
X131850000Y-81964285D01*
X131826190Y-81916666D01*
X131826190Y-81797619D01*
X131850000Y-81726190D01*
X132326190Y-81511904D02*
X131826190Y-81511904D01*
X131850000Y-81011904D02*
X131826190Y-81059523D01*
X131826190Y-81130952D01*
X131850000Y-81202380D01*
X131897619Y-81250000D01*
X131945238Y-81273809D01*
X132040476Y-81297619D01*
X132111904Y-81297619D01*
X132207142Y-81273809D01*
X132254761Y-81250000D01*
X132302380Y-81202380D01*
X132326190Y-81130952D01*
X132326190Y-81083333D01*
X132302380Y-81011904D01*
X132278571Y-80988095D01*
X132111904Y-80988095D01*
X132111904Y-81083333D01*
X152530952Y-117363095D02*
X152685714Y-117363095D01*
X152602380Y-117458333D01*
X152638095Y-117458333D01*
X152661904Y-117470238D01*
X152673809Y-117482142D01*
X152685714Y-117505952D01*
X152685714Y-117565476D01*
X152673809Y-117589285D01*
X152661904Y-117601190D01*
X152638095Y-117613095D01*
X152566666Y-117613095D01*
X152542857Y-117601190D01*
X152530952Y-117589285D01*
X152792857Y-117589285D02*
X152804761Y-117601190D01*
X152792857Y-117613095D01*
X152780952Y-117601190D01*
X152792857Y-117589285D01*
X152792857Y-117613095D01*
X152888095Y-117363095D02*
X153042857Y-117363095D01*
X152959523Y-117458333D01*
X152995238Y-117458333D01*
X153019047Y-117470238D01*
X153030952Y-117482142D01*
X153042857Y-117505952D01*
X153042857Y-117565476D01*
X153030952Y-117589285D01*
X153019047Y-117601190D01*
X152995238Y-117613095D01*
X152923809Y-117613095D01*
X152900000Y-117601190D01*
X152888095Y-117589285D01*
X153114285Y-117363095D02*
X153197619Y-117613095D01*
X153280952Y-117363095D01*
X127326190Y-81395238D02*
X127326190Y-81633333D01*
X127564285Y-81657142D01*
X127540476Y-81633333D01*
X127516666Y-81585714D01*
X127516666Y-81466666D01*
X127540476Y-81419047D01*
X127564285Y-81395238D01*
X127611904Y-81371428D01*
X127730952Y-81371428D01*
X127778571Y-81395238D01*
X127802380Y-81419047D01*
X127826190Y-81466666D01*
X127826190Y-81585714D01*
X127802380Y-81633333D01*
X127778571Y-81657142D01*
X127326190Y-81228571D02*
X127826190Y-81061904D01*
X127326190Y-80895238D01*
D12*
X126261904Y-118566666D02*
X126738095Y-118566666D01*
X126166666Y-118852380D02*
X126500000Y-117852380D01*
X126833333Y-118852380D01*
X127166666Y-118852380D02*
X127166666Y-117852380D01*
X127404761Y-117852380D01*
X127547619Y-117900000D01*
X127642857Y-117995238D01*
X127690476Y-118090476D01*
X127738095Y-118280952D01*
X127738095Y-118423809D01*
X127690476Y-118614285D01*
X127642857Y-118709523D01*
X127547619Y-118804761D01*
X127404761Y-118852380D01*
X127166666Y-118852380D01*
X128738095Y-118757142D02*
X128690476Y-118804761D01*
X128547619Y-118852380D01*
X128452380Y-118852380D01*
X128309523Y-118804761D01*
X128214285Y-118709523D01*
X128166666Y-118614285D01*
X128119047Y-118423809D01*
X128119047Y-118280952D01*
X128166666Y-118090476D01*
X128214285Y-117995238D01*
X128309523Y-117900000D01*
X128452380Y-117852380D01*
X128547619Y-117852380D01*
X128690476Y-117900000D01*
X128738095Y-117947619D01*
D13*
%TO.C,J9*%
X129835000Y-114740000D02*
X129835000Y-120460000D01*
X128475000Y-114750000D02*
X128475000Y-114450000D01*
X126435000Y-115040000D02*
X126435000Y-114740000D01*
X126435000Y-114740000D02*
X125365000Y-114740000D01*
X129835000Y-120460000D02*
X127600000Y-120460000D01*
X128475000Y-114450000D02*
X128975000Y-114450000D01*
X128765000Y-115040000D02*
X128765000Y-114740000D01*
X127600000Y-115040000D02*
X128765000Y-115040000D01*
X128765000Y-114740000D02*
X129835000Y-114740000D01*
X127600000Y-115040000D02*
X126435000Y-115040000D01*
X125365000Y-114740000D02*
X125365000Y-120460000D01*
X125365000Y-120460000D02*
X127600000Y-120460000D01*
%TD*%
M02*
