%TF.GenerationSoftware,KiCad,Pcbnew,(5.99.0-8018-g9a0f685a75)*%
%TF.CreationDate,2021-03-04T01:20:55+00:00*%
%TF.ProjectId,CM4,434d342e-6b69-4636-9164-5f7063625858,v01*%
%TF.SameCoordinates,Original*%
%TF.FileFunction,Soldermask,Bot*%
%TF.FilePolarity,Negative*%
%FSLAX46Y46*%
G04 Gerber Fmt 4.6, Leading zero omitted, Abs format (unit mm)*
G04 Created by KiCad (PCBNEW (5.99.0-8018-g9a0f685a75)) date 2021-03-04 01:20:55*
%MOMM*%
%LPD*%
G01*
G04 APERTURE LIST*
G04 Aperture macros list*
%AMRoundRect*
0 Rectangle with rounded corners*
0 $1 Rounding radius*
0 $2 $3 $4 $5 $6 $7 $8 $9 X,Y pos of 4 corners*
0 Add a 4 corners polygon primitive as box body*
4,1,4,$2,$3,$4,$5,$6,$7,$8,$9,$2,$3,0*
0 Add four circle primitives for the rounded corners*
1,1,$1+$1,$2,$3,0*
1,1,$1+$1,$4,$5,0*
1,1,$1+$1,$6,$7,0*
1,1,$1+$1,$8,$9,0*
0 Add four rect primitives between the rounded corners*
20,1,$1+$1,$2,$3,$4,$5,0*
20,1,$1+$1,$4,$5,$6,$7,0*
20,1,$1+$1,$6,$7,$8,$9,0*
20,1,$1+$1,$8,$9,$2,$3,0*%
G04 Aperture macros list end*
%ADD10C,6.100000*%
%ADD11R,0.200000X0.700000*%
%ADD12R,1.650000X1.650000*%
%ADD13C,1.650000*%
%ADD14C,0.650000*%
%ADD15O,2.100000X1.000000*%
%ADD16O,1.600000X1.000000*%
%ADD17C,1.450000*%
%ADD18O,1.900000X1.200000*%
%ADD19R,1.000000X1.000000*%
%ADD20O,1.000000X1.000000*%
%ADD21C,2.220000*%
%ADD22C,2.310000*%
%ADD23R,1.700000X1.700000*%
%ADD24O,1.700000X1.700000*%
%ADD25C,1.500000*%
%ADD26RoundRect,0.200000X-0.200000X-0.275000X0.200000X-0.275000X0.200000X0.275000X-0.200000X0.275000X0*%
%ADD27R,1.800000X0.800000*%
%ADD28RoundRect,0.140000X-0.170000X0.140000X-0.170000X-0.140000X0.170000X-0.140000X0.170000X0.140000X0*%
%ADD29RoundRect,0.218750X0.218750X0.256250X-0.218750X0.256250X-0.218750X-0.256250X0.218750X-0.256250X0*%
%ADD30RoundRect,0.200000X0.600000X-0.200000X0.600000X0.200000X-0.600000X0.200000X-0.600000X-0.200000X0*%
%ADD31RoundRect,0.250001X1.249999X-0.799999X1.249999X0.799999X-1.249999X0.799999X-1.249999X-0.799999X0*%
%ADD32R,1.500000X1.000000*%
%ADD33RoundRect,0.200000X0.200000X0.450000X-0.200000X0.450000X-0.200000X-0.450000X0.200000X-0.450000X0*%
%ADD34O,0.800000X1.300000*%
%ADD35RoundRect,0.140000X0.170000X-0.140000X0.170000X0.140000X-0.170000X0.140000X-0.170000X-0.140000X0*%
%ADD36RoundRect,0.200000X-0.600000X0.200000X-0.600000X-0.200000X0.600000X-0.200000X0.600000X0.200000X0*%
%ADD37RoundRect,0.250001X-1.249999X0.799999X-1.249999X-0.799999X1.249999X-0.799999X1.249999X0.799999X0*%
%ADD38R,1.000000X1.500000*%
%ADD39RoundRect,0.225000X-0.250000X0.225000X-0.250000X-0.225000X0.250000X-0.225000X0.250000X0.225000X0*%
G04 APERTURE END LIST*
D10*
%TO.C,Module1*%
X126850000Y-79950000D03*
X174850000Y-46950000D03*
X126850000Y-46950000D03*
X174850000Y-79950000D03*
D11*
X158150000Y-81950000D03*
X158150000Y-78870000D03*
X157750000Y-81950000D03*
X157750000Y-78870000D03*
X157350000Y-81950000D03*
X157350000Y-78870000D03*
X156950000Y-81950000D03*
X156950000Y-78870000D03*
X156550000Y-81950000D03*
X156550000Y-78870000D03*
X156150000Y-81950000D03*
X156150000Y-78870000D03*
X155750000Y-81950000D03*
X155750000Y-78870000D03*
X155350000Y-81950000D03*
X155350000Y-78870000D03*
X154950000Y-81950000D03*
X154950000Y-78870000D03*
X154550000Y-81950000D03*
X154550000Y-78870000D03*
X154150000Y-81950000D03*
X154150000Y-78870000D03*
X153750000Y-81950000D03*
X153750000Y-78870000D03*
X153350000Y-81950000D03*
X153350000Y-78870000D03*
X152950000Y-81950000D03*
X152950000Y-78870000D03*
X152550000Y-81950000D03*
X152550000Y-78870000D03*
X152150000Y-81950000D03*
X152150000Y-78870000D03*
X151750000Y-81950000D03*
X151750000Y-78870000D03*
X151350000Y-81950000D03*
X151350000Y-78870000D03*
X150950000Y-81950000D03*
X150950000Y-78870000D03*
X150550000Y-81950000D03*
X150550000Y-78870000D03*
X150150000Y-81950000D03*
X150150000Y-78870000D03*
X149750000Y-81950000D03*
X149750000Y-78870000D03*
X149350000Y-81950000D03*
X149350000Y-78870000D03*
X148950000Y-81950000D03*
X148950000Y-78870000D03*
X148550000Y-81950000D03*
X148550000Y-78870000D03*
X148150000Y-81950000D03*
X148150000Y-78870000D03*
X147750000Y-81950000D03*
X147750000Y-78870000D03*
X147350000Y-81950000D03*
X147350000Y-78870000D03*
X146950000Y-81950000D03*
X146950000Y-78870000D03*
X146550000Y-81950000D03*
X146550000Y-78870000D03*
X146150000Y-81950000D03*
X146150000Y-78870000D03*
X145750000Y-81950000D03*
X145750000Y-78870000D03*
X145350000Y-81950000D03*
X145350000Y-78870000D03*
X144950000Y-81950000D03*
X144950000Y-78870000D03*
X144550000Y-81950000D03*
X144550000Y-78870000D03*
X144150000Y-81950000D03*
X144150000Y-78870000D03*
X143750000Y-81950000D03*
X143750000Y-78870000D03*
X143350000Y-81950000D03*
X143350000Y-78870000D03*
X142950000Y-81950000D03*
X142950000Y-78870000D03*
X142550000Y-81950000D03*
X142550000Y-78870000D03*
X142150000Y-81950000D03*
X142150000Y-78870000D03*
X141750000Y-81950000D03*
X141750000Y-78870000D03*
X141350000Y-81950000D03*
X141350000Y-78870000D03*
X140950000Y-81950000D03*
X140950000Y-78870000D03*
X140550000Y-81950000D03*
X140550000Y-78870000D03*
X140150000Y-81950000D03*
X140150000Y-78870000D03*
X139750000Y-81950000D03*
X139750000Y-78870000D03*
X139350000Y-81950000D03*
X139350000Y-78870000D03*
X138950000Y-81950000D03*
X138950000Y-78870000D03*
X138550000Y-81950000D03*
X138550000Y-78870000D03*
X158150000Y-48030000D03*
X158150000Y-44950000D03*
X157750000Y-48030000D03*
X157750000Y-44950000D03*
X157350000Y-48030000D03*
X157350000Y-44950000D03*
X156950000Y-48030000D03*
X156950000Y-44950000D03*
X156550000Y-48030000D03*
X156550000Y-44950000D03*
X156150000Y-48030000D03*
X156150000Y-44950000D03*
X155750000Y-48030000D03*
X155750000Y-44950000D03*
X155350000Y-48030000D03*
X155350000Y-44950000D03*
X154950000Y-48030000D03*
X154950000Y-44950000D03*
X154550000Y-48030000D03*
X154550000Y-44950000D03*
X154150000Y-48030000D03*
X154150000Y-44950000D03*
X153750000Y-48030000D03*
X153750000Y-44950000D03*
X153350000Y-48030000D03*
X153350000Y-44950000D03*
X152950000Y-48030000D03*
X152950000Y-44950000D03*
X152550000Y-48030000D03*
X152550000Y-44950000D03*
X152150000Y-48030000D03*
X152150000Y-44950000D03*
X151750000Y-48030000D03*
X151750000Y-44950000D03*
X151350000Y-48030000D03*
X151350000Y-44950000D03*
X150950000Y-48030000D03*
X150950000Y-44950000D03*
X150550000Y-48030000D03*
X150550000Y-44950000D03*
X150150000Y-48030000D03*
X150150000Y-44950000D03*
X149750000Y-48030000D03*
X149750000Y-44950000D03*
X149350000Y-48030000D03*
X149350000Y-44950000D03*
X148950000Y-48030000D03*
X148950000Y-44950000D03*
X148550000Y-48030000D03*
X148550000Y-44950000D03*
X148150000Y-48030000D03*
X148150000Y-44950000D03*
X147750000Y-48030000D03*
X147750000Y-44950000D03*
X147350000Y-48030000D03*
X147350000Y-44950000D03*
X146950000Y-48030000D03*
X146950000Y-44950000D03*
X146550000Y-48030000D03*
X146550000Y-44950000D03*
X146150000Y-48030000D03*
X146150000Y-44950000D03*
X145750000Y-48030000D03*
X145750000Y-44950000D03*
X145350000Y-48030000D03*
X145350000Y-44950000D03*
X144950000Y-48030000D03*
X144950000Y-44950000D03*
X144550000Y-48030000D03*
X144550000Y-44950000D03*
X144150000Y-48030000D03*
X144150000Y-44950000D03*
X143750000Y-48030000D03*
X143750000Y-44950000D03*
X143350000Y-48030000D03*
X143350000Y-44950000D03*
X142950000Y-48030000D03*
X142950000Y-44950000D03*
X142550000Y-48030000D03*
X142550000Y-44950000D03*
X142150000Y-48030000D03*
X142150000Y-44950000D03*
X141750000Y-48030000D03*
X141750000Y-44950000D03*
X141350000Y-48030000D03*
X141350000Y-44950000D03*
X140950000Y-48030000D03*
X140950000Y-44950000D03*
X140550000Y-48030000D03*
X140550000Y-44950000D03*
X140150000Y-48030000D03*
X140150000Y-44950000D03*
X139750000Y-48030000D03*
X139750000Y-44950000D03*
X139350000Y-48030000D03*
X139350000Y-44950000D03*
X138950000Y-48030000D03*
X138950000Y-44950000D03*
X138550000Y-48030000D03*
X138550000Y-44950000D03*
%TD*%
D12*
%TO.C,J7*%
X132790000Y-93000000D03*
D13*
X130250000Y-93000000D03*
X127710000Y-93000000D03*
%TD*%
D14*
%TO.C,J2*%
X172650000Y-58640000D03*
X172650000Y-52860000D03*
D15*
X172120000Y-60070000D03*
D16*
X176300000Y-51430000D03*
X176300000Y-60070000D03*
D15*
X172120000Y-51430000D03*
%TD*%
D12*
%TO.C,J8*%
X132750000Y-89500000D03*
D13*
X130210000Y-89500000D03*
X127670000Y-89500000D03*
%TD*%
D17*
%TO.C,J13*%
X174737500Y-85900000D03*
X174737500Y-90900000D03*
D18*
X177437500Y-84900000D03*
X177437500Y-91900000D03*
%TD*%
D12*
%TO.C,J6*%
X132750000Y-96250000D03*
D13*
X130210000Y-96250000D03*
X127670000Y-96250000D03*
%TD*%
D19*
%TO.C,J14*%
X154200000Y-70200000D03*
D20*
X154200000Y-71470000D03*
X152930000Y-70200000D03*
X152930000Y-71470000D03*
X151660000Y-70200000D03*
X151660000Y-71470000D03*
X150390000Y-70200000D03*
X150390000Y-71470000D03*
X149120000Y-70200000D03*
X149120000Y-71470000D03*
%TD*%
D21*
%TO.C,J4*%
X170400000Y-118000000D03*
D22*
X167860000Y-120540000D03*
X172940000Y-120540000D03*
X172940000Y-115460000D03*
X167860000Y-115460000D03*
%TD*%
D23*
%TO.C,J16*%
X141800000Y-120200000D03*
D24*
X144340000Y-120200000D03*
X146880000Y-120200000D03*
%TD*%
D12*
%TO.C,J5*%
X132750000Y-99750000D03*
D13*
X130210000Y-99750000D03*
X127670000Y-99750000D03*
%TD*%
D12*
%TO.C,J12*%
X132700000Y-86000000D03*
D13*
X130160000Y-86000000D03*
X127620000Y-86000000D03*
%TD*%
D25*
%TO.C,S1*%
X136237500Y-66050000D03*
X142737500Y-66050000D03*
X142737500Y-61550000D03*
X136237500Y-61550000D03*
%TD*%
D26*
%TO.C,R22*%
X147375000Y-103200000D03*
X149025000Y-103200000D03*
%TD*%
%TO.C,R23*%
X147375000Y-107000000D03*
X149025000Y-107000000D03*
%TD*%
D27*
%TO.C,L3*%
X135600000Y-99200000D03*
X135600000Y-97600000D03*
%TD*%
D26*
%TO.C,R25*%
X147375000Y-105000000D03*
X149025000Y-105000000D03*
%TD*%
%TO.C,R24*%
X147375000Y-101400000D03*
X149025000Y-101400000D03*
%TD*%
D28*
%TO.C,C18*%
X161400000Y-106120000D03*
X161400000Y-107080000D03*
%TD*%
D29*
%TO.C,D6*%
X145187500Y-101400000D03*
X143612500Y-101400000D03*
%TD*%
D30*
%TO.C,J10*%
X128600000Y-110075000D03*
X128600000Y-108825000D03*
X128600000Y-107575000D03*
X128600000Y-106325000D03*
D31*
X125700000Y-112625000D03*
X125700000Y-103775000D03*
%TD*%
D29*
%TO.C,D5*%
X145187500Y-107000000D03*
X143612500Y-107000000D03*
%TD*%
%TO.C,JP2*%
G36*
X169850000Y-104649999D02*
G01*
X169850000Y-104100000D01*
X169854967Y-104100000D01*
X169856432Y-104020059D01*
X169898707Y-103884744D01*
X169977263Y-103766734D01*
X170085782Y-103675514D01*
X170215541Y-103618419D01*
X170350001Y-103600836D01*
X170350001Y-103600000D01*
X170850000Y-103600001D01*
X170850000Y-103600837D01*
X170856109Y-103600038D01*
X170996186Y-103621849D01*
X171124511Y-103682097D01*
X171230769Y-103775941D01*
X171306417Y-103895836D01*
X171345374Y-104032143D01*
X171344959Y-104100000D01*
X171350000Y-104100000D01*
X171349999Y-104650000D01*
X169850000Y-104649999D01*
G37*
D32*
X170600000Y-105400000D03*
G36*
X171344959Y-106700000D02*
G01*
X171344508Y-106773905D01*
X171303889Y-106909726D01*
X171226781Y-107028688D01*
X171119384Y-107121226D01*
X170990332Y-107179903D01*
X170849999Y-107200000D01*
X170350000Y-107199999D01*
X170337784Y-107199850D01*
X170197983Y-107176330D01*
X170070404Y-107114518D01*
X169965300Y-107019383D01*
X169891123Y-106898573D01*
X169853834Y-106761800D01*
X169854967Y-106700000D01*
X169850000Y-106700000D01*
X169850001Y-106150000D01*
X171350000Y-106150001D01*
X171350000Y-106700000D01*
X171344959Y-106700000D01*
G37*
%TD*%
D33*
%TO.C,J9*%
X134400000Y-117000000D03*
D34*
X133150000Y-117000000D03*
%TD*%
D35*
%TO.C,C42*%
X142150000Y-98630000D03*
X142150000Y-97670000D03*
%TD*%
D36*
%TO.C,J11*%
X174000000Y-102475000D03*
X174000000Y-103725000D03*
X174000000Y-104975000D03*
X174000000Y-106225000D03*
X174000000Y-107475000D03*
X174000000Y-108725000D03*
D37*
X176900000Y-111275000D03*
X176900000Y-99925000D03*
%TD*%
%TO.C,JP1*%
G36*
X152800001Y-49600000D02*
G01*
X153350000Y-49600000D01*
X153350000Y-49604967D01*
X153429941Y-49606432D01*
X153565256Y-49648707D01*
X153683266Y-49727262D01*
X153774486Y-49835782D01*
X153831581Y-49965541D01*
X153849164Y-50100001D01*
X153850000Y-50100001D01*
X153849999Y-50600000D01*
X153849163Y-50600000D01*
X153849962Y-50606109D01*
X153828151Y-50746186D01*
X153767903Y-50874511D01*
X153674059Y-50980769D01*
X153554164Y-51056417D01*
X153417857Y-51095374D01*
X153350000Y-51094959D01*
X153350000Y-51100000D01*
X152800000Y-51099999D01*
X152800001Y-49600000D01*
G37*
D38*
X152050000Y-50350000D03*
G36*
X150750000Y-51094959D02*
G01*
X150676095Y-51094508D01*
X150540274Y-51053889D01*
X150421312Y-50976782D01*
X150328774Y-50869384D01*
X150270097Y-50740332D01*
X150250000Y-50599999D01*
X150250001Y-50100000D01*
X150250150Y-50087784D01*
X150273670Y-49947983D01*
X150335482Y-49820404D01*
X150430617Y-49715300D01*
X150551427Y-49641123D01*
X150688200Y-49603834D01*
X150750000Y-49604967D01*
X150750000Y-49600000D01*
X151300000Y-49600001D01*
X151299999Y-51100000D01*
X150750000Y-51100000D01*
X150750000Y-51094959D01*
G37*
%TD*%
D29*
%TO.C,D4*%
X145187500Y-103200000D03*
X143612500Y-103200000D03*
%TD*%
D35*
%TO.C,C33*%
X161800000Y-111680000D03*
X161800000Y-110720000D03*
%TD*%
D39*
%TO.C,C43*%
X137900000Y-100125000D03*
X137900000Y-101675000D03*
%TD*%
D29*
%TO.C,D7*%
X145187500Y-105000000D03*
X143612500Y-105000000D03*
%TD*%
M02*
