%TF.GenerationSoftware,KiCad,Pcbnew,(5.99.0-10089-gf88d39b4f0)*%
%TF.CreationDate,2021-04-25T16:59:05+01:00*%
%TF.ProjectId,CM4,434d342e-6b69-4636-9164-5f7063625858,v01*%
%TF.SameCoordinates,Original*%
%TF.FileFunction,Soldermask,Bot*%
%TF.FilePolarity,Negative*%
%FSLAX46Y46*%
G04 Gerber Fmt 4.6, Leading zero omitted, Abs format (unit mm)*
G04 Created by KiCad (PCBNEW (5.99.0-10089-gf88d39b4f0)) date 2021-04-25 16:59:05*
%MOMM*%
%LPD*%
G01*
G04 APERTURE LIST*
G04 Aperture macros list*
%AMRoundRect*
0 Rectangle with rounded corners*
0 $1 Rounding radius*
0 $2 $3 $4 $5 $6 $7 $8 $9 X,Y pos of 4 corners*
0 Add a 4 corners polygon primitive as box body*
4,1,4,$2,$3,$4,$5,$6,$7,$8,$9,$2,$3,0*
0 Add four circle primitives for the rounded corners*
1,1,$1+$1,$2,$3*
1,1,$1+$1,$4,$5*
1,1,$1+$1,$6,$7*
1,1,$1+$1,$8,$9*
0 Add four rect primitives between the rounded corners*
20,1,$1+$1,$2,$3,$4,$5,0*
20,1,$1+$1,$4,$5,$6,$7,0*
20,1,$1+$1,$6,$7,$8,$9,0*
20,1,$1+$1,$8,$9,$2,$3,0*%
G04 Aperture macros list end*
%ADD10R,1.650000X1.650000*%
%ADD11C,1.650000*%
%ADD12C,0.650000*%
%ADD13O,1.000000X2.100000*%
%ADD14O,1.000000X1.600000*%
%ADD15R,1.000000X1.000000*%
%ADD16O,1.000000X1.000000*%
%ADD17RoundRect,0.200000X0.450000X-0.200000X0.450000X0.200000X-0.450000X0.200000X-0.450000X-0.200000X0*%
%ADD18O,1.300000X0.800000*%
%ADD19R,1.700000X1.700000*%
%ADD20O,1.700000X1.700000*%
%ADD21C,1.500000*%
%ADD22RoundRect,0.200000X0.200000X0.450000X-0.200000X0.450000X-0.200000X-0.450000X0.200000X-0.450000X0*%
%ADD23O,0.800000X1.300000*%
G04 APERTURE END LIST*
D10*
%TO.C,J7*%
X132790000Y-72450000D03*
D11*
X130250000Y-72450000D03*
X127710000Y-72450000D03*
%TD*%
D12*
%TO.C,J2*%
X155390000Y-55240000D03*
X149610000Y-55240000D03*
D13*
X156820000Y-55770000D03*
D14*
X148180000Y-51590000D03*
X156820000Y-51590000D03*
D13*
X148180000Y-55770000D03*
%TD*%
D10*
%TO.C,J8*%
X132750000Y-68950000D03*
D11*
X130210000Y-68950000D03*
X127670000Y-68950000D03*
%TD*%
D10*
%TO.C,J6*%
X132750000Y-75700000D03*
D11*
X130210000Y-75700000D03*
X127670000Y-75700000D03*
%TD*%
D15*
%TO.C,J14*%
X177370000Y-87770000D03*
D16*
X176100000Y-87770000D03*
X177370000Y-86500000D03*
X176100000Y-86500000D03*
X177370000Y-85230000D03*
X176100000Y-85230000D03*
X177370000Y-83960000D03*
X176100000Y-83960000D03*
X177370000Y-82690000D03*
X176100000Y-82690000D03*
%TD*%
D17*
%TO.C,J3*%
X177450000Y-96700000D03*
D18*
X177450000Y-95450000D03*
X177450000Y-94200000D03*
X177450000Y-92950000D03*
X177450000Y-91700000D03*
%TD*%
D19*
%TO.C,J16*%
X125600000Y-95375000D03*
D20*
X125600000Y-97915000D03*
X125600000Y-100455000D03*
%TD*%
D10*
%TO.C,J5*%
X132750000Y-79200000D03*
D11*
X130210000Y-79200000D03*
X127670000Y-79200000D03*
%TD*%
D10*
%TO.C,J12*%
X132700000Y-65450000D03*
D11*
X130160000Y-65450000D03*
X127620000Y-65450000D03*
%TD*%
D21*
%TO.C,S1*%
X125450000Y-90350000D03*
X131950000Y-90350000D03*
X131950000Y-85850000D03*
X125450000Y-85850000D03*
%TD*%
D22*
%TO.C,J9*%
X128225000Y-115900000D03*
D23*
X126975000Y-115900000D03*
%TD*%
M02*
