%TF.GenerationSoftware,KiCad,Pcbnew,(5.99.0-8018-g9a0f685a75)*%
%TF.CreationDate,2021-03-04T01:20:55+00:00*%
%TF.ProjectId,CM4,434d342e-6b69-4636-9164-5f7063625858,v01*%
%TF.SameCoordinates,Original*%
%TF.FileFunction,Paste,Bot*%
%TF.FilePolarity,Positive*%
%FSLAX46Y46*%
G04 Gerber Fmt 4.6, Leading zero omitted, Abs format (unit mm)*
G04 Created by KiCad (PCBNEW (5.99.0-8018-g9a0f685a75)) date 2021-03-04 01:20:55*
%MOMM*%
%LPD*%
G01*
G04 APERTURE LIST*
G04 Aperture macros list*
%AMRoundRect*
0 Rectangle with rounded corners*
0 $1 Rounding radius*
0 $2 $3 $4 $5 $6 $7 $8 $9 X,Y pos of 4 corners*
0 Add a 4 corners polygon primitive as box body*
4,1,4,$2,$3,$4,$5,$6,$7,$8,$9,$2,$3,0*
0 Add four circle primitives for the rounded corners*
1,1,$1+$1,$2,$3,0*
1,1,$1+$1,$4,$5,0*
1,1,$1+$1,$6,$7,0*
1,1,$1+$1,$8,$9,0*
0 Add four rect primitives between the rounded corners*
20,1,$1+$1,$2,$3,$4,$5,0*
20,1,$1+$1,$4,$5,$6,$7,0*
20,1,$1+$1,$6,$7,$8,$9,0*
20,1,$1+$1,$8,$9,$2,$3,0*%
G04 Aperture macros list end*
%ADD10R,0.200000X0.700000*%
%ADD11RoundRect,0.200000X-0.200000X-0.275000X0.200000X-0.275000X0.200000X0.275000X-0.200000X0.275000X0*%
%ADD12R,1.800000X0.800000*%
%ADD13RoundRect,0.140000X-0.170000X0.140000X-0.170000X-0.140000X0.170000X-0.140000X0.170000X0.140000X0*%
%ADD14RoundRect,0.218750X0.218750X0.256250X-0.218750X0.256250X-0.218750X-0.256250X0.218750X-0.256250X0*%
%ADD15RoundRect,0.200000X0.600000X-0.200000X0.600000X0.200000X-0.600000X0.200000X-0.600000X-0.200000X0*%
%ADD16RoundRect,0.250001X1.249999X-0.799999X1.249999X0.799999X-1.249999X0.799999X-1.249999X-0.799999X0*%
%ADD17RoundRect,0.140000X0.170000X-0.140000X0.170000X0.140000X-0.170000X0.140000X-0.170000X-0.140000X0*%
%ADD18RoundRect,0.200000X-0.600000X0.200000X-0.600000X-0.200000X0.600000X-0.200000X0.600000X0.200000X0*%
%ADD19RoundRect,0.250001X-1.249999X0.799999X-1.249999X-0.799999X1.249999X-0.799999X1.249999X0.799999X0*%
%ADD20RoundRect,0.225000X-0.250000X0.225000X-0.250000X-0.225000X0.250000X-0.225000X0.250000X0.225000X0*%
G04 APERTURE END LIST*
D10*
%TO.C,Module1*%
X158150000Y-81950000D03*
X158150000Y-78870000D03*
X157750000Y-81950000D03*
X157750000Y-78870000D03*
X157350000Y-81950000D03*
X157350000Y-78870000D03*
X156950000Y-81950000D03*
X156950000Y-78870000D03*
X156550000Y-81950000D03*
X156550000Y-78870000D03*
X156150000Y-81950000D03*
X156150000Y-78870000D03*
X155750000Y-81950000D03*
X155750000Y-78870000D03*
X155350000Y-81950000D03*
X155350000Y-78870000D03*
X154950000Y-81950000D03*
X154950000Y-78870000D03*
X154550000Y-81950000D03*
X154550000Y-78870000D03*
X154150000Y-81950000D03*
X154150000Y-78870000D03*
X153750000Y-81950000D03*
X153750000Y-78870000D03*
X153350000Y-81950000D03*
X153350000Y-78870000D03*
X152950000Y-81950000D03*
X152950000Y-78870000D03*
X152550000Y-81950000D03*
X152550000Y-78870000D03*
X152150000Y-81950000D03*
X152150000Y-78870000D03*
X151750000Y-81950000D03*
X151750000Y-78870000D03*
X151350000Y-81950000D03*
X151350000Y-78870000D03*
X150950000Y-81950000D03*
X150950000Y-78870000D03*
X150550000Y-81950000D03*
X150550000Y-78870000D03*
X150150000Y-81950000D03*
X150150000Y-78870000D03*
X149750000Y-81950000D03*
X149750000Y-78870000D03*
X149350000Y-81950000D03*
X149350000Y-78870000D03*
X148950000Y-81950000D03*
X148950000Y-78870000D03*
X148550000Y-81950000D03*
X148550000Y-78870000D03*
X148150000Y-81950000D03*
X148150000Y-78870000D03*
X147750000Y-81950000D03*
X147750000Y-78870000D03*
X147350000Y-81950000D03*
X147350000Y-78870000D03*
X146950000Y-81950000D03*
X146950000Y-78870000D03*
X146550000Y-81950000D03*
X146550000Y-78870000D03*
X146150000Y-81950000D03*
X146150000Y-78870000D03*
X145750000Y-81950000D03*
X145750000Y-78870000D03*
X145350000Y-81950000D03*
X145350000Y-78870000D03*
X144950000Y-81950000D03*
X144950000Y-78870000D03*
X144550000Y-81950000D03*
X144550000Y-78870000D03*
X144150000Y-81950000D03*
X144150000Y-78870000D03*
X143750000Y-81950000D03*
X143750000Y-78870000D03*
X143350000Y-81950000D03*
X143350000Y-78870000D03*
X142950000Y-81950000D03*
X142950000Y-78870000D03*
X142550000Y-81950000D03*
X142550000Y-78870000D03*
X142150000Y-81950000D03*
X142150000Y-78870000D03*
X141750000Y-81950000D03*
X141750000Y-78870000D03*
X141350000Y-81950000D03*
X141350000Y-78870000D03*
X140950000Y-81950000D03*
X140950000Y-78870000D03*
X140550000Y-81950000D03*
X140550000Y-78870000D03*
X140150000Y-81950000D03*
X140150000Y-78870000D03*
X139750000Y-81950000D03*
X139750000Y-78870000D03*
X139350000Y-81950000D03*
X139350000Y-78870000D03*
X138950000Y-81950000D03*
X138950000Y-78870000D03*
X138550000Y-81950000D03*
X138550000Y-78870000D03*
X158150000Y-48030000D03*
X158150000Y-44950000D03*
X157750000Y-48030000D03*
X157750000Y-44950000D03*
X157350000Y-48030000D03*
X157350000Y-44950000D03*
X156950000Y-48030000D03*
X156950000Y-44950000D03*
X156550000Y-48030000D03*
X156550000Y-44950000D03*
X156150000Y-48030000D03*
X156150000Y-44950000D03*
X155750000Y-48030000D03*
X155750000Y-44950000D03*
X155350000Y-48030000D03*
X155350000Y-44950000D03*
X154950000Y-48030000D03*
X154950000Y-44950000D03*
X154550000Y-48030000D03*
X154550000Y-44950000D03*
X154150000Y-48030000D03*
X154150000Y-44950000D03*
X153750000Y-48030000D03*
X153750000Y-44950000D03*
X153350000Y-48030000D03*
X153350000Y-44950000D03*
X152950000Y-48030000D03*
X152950000Y-44950000D03*
X152550000Y-48030000D03*
X152550000Y-44950000D03*
X152150000Y-48030000D03*
X152150000Y-44950000D03*
X151750000Y-48030000D03*
X151750000Y-44950000D03*
X151350000Y-48030000D03*
X151350000Y-44950000D03*
X150950000Y-48030000D03*
X150950000Y-44950000D03*
X150550000Y-48030000D03*
X150550000Y-44950000D03*
X150150000Y-48030000D03*
X150150000Y-44950000D03*
X149750000Y-48030000D03*
X149750000Y-44950000D03*
X149350000Y-48030000D03*
X149350000Y-44950000D03*
X148950000Y-48030000D03*
X148950000Y-44950000D03*
X148550000Y-48030000D03*
X148550000Y-44950000D03*
X148150000Y-48030000D03*
X148150000Y-44950000D03*
X147750000Y-48030000D03*
X147750000Y-44950000D03*
X147350000Y-48030000D03*
X147350000Y-44950000D03*
X146950000Y-48030000D03*
X146950000Y-44950000D03*
X146550000Y-48030000D03*
X146550000Y-44950000D03*
X146150000Y-48030000D03*
X146150000Y-44950000D03*
X145750000Y-48030000D03*
X145750000Y-44950000D03*
X145350000Y-48030000D03*
X145350000Y-44950000D03*
X144950000Y-48030000D03*
X144950000Y-44950000D03*
X144550000Y-48030000D03*
X144550000Y-44950000D03*
X144150000Y-48030000D03*
X144150000Y-44950000D03*
X143750000Y-48030000D03*
X143750000Y-44950000D03*
X143350000Y-48030000D03*
X143350000Y-44950000D03*
X142950000Y-48030000D03*
X142950000Y-44950000D03*
X142550000Y-48030000D03*
X142550000Y-44950000D03*
X142150000Y-48030000D03*
X142150000Y-44950000D03*
X141750000Y-48030000D03*
X141750000Y-44950000D03*
X141350000Y-48030000D03*
X141350000Y-44950000D03*
X140950000Y-48030000D03*
X140950000Y-44950000D03*
X140550000Y-48030000D03*
X140550000Y-44950000D03*
X140150000Y-48030000D03*
X140150000Y-44950000D03*
X139750000Y-48030000D03*
X139750000Y-44950000D03*
X139350000Y-48030000D03*
X139350000Y-44950000D03*
X138950000Y-48030000D03*
X138950000Y-44950000D03*
X138550000Y-48030000D03*
X138550000Y-44950000D03*
%TD*%
D11*
%TO.C,R22*%
X147375000Y-103200000D03*
X149025000Y-103200000D03*
%TD*%
%TO.C,R23*%
X147375000Y-107000000D03*
X149025000Y-107000000D03*
%TD*%
D12*
%TO.C,L3*%
X135600000Y-99200000D03*
X135600000Y-97600000D03*
%TD*%
D11*
%TO.C,R25*%
X147375000Y-105000000D03*
X149025000Y-105000000D03*
%TD*%
%TO.C,R24*%
X147375000Y-101400000D03*
X149025000Y-101400000D03*
%TD*%
D13*
%TO.C,C18*%
X161400000Y-106120000D03*
X161400000Y-107080000D03*
%TD*%
D14*
%TO.C,D6*%
X145187500Y-101400000D03*
X143612500Y-101400000D03*
%TD*%
D15*
%TO.C,J10*%
X128600000Y-110075000D03*
X128600000Y-108825000D03*
X128600000Y-107575000D03*
X128600000Y-106325000D03*
D16*
X125700000Y-112625000D03*
X125700000Y-103775000D03*
%TD*%
D14*
%TO.C,D5*%
X145187500Y-107000000D03*
X143612500Y-107000000D03*
%TD*%
D17*
%TO.C,C42*%
X142150000Y-98630000D03*
X142150000Y-97670000D03*
%TD*%
D18*
%TO.C,J11*%
X174000000Y-102475000D03*
X174000000Y-103725000D03*
X174000000Y-104975000D03*
X174000000Y-106225000D03*
X174000000Y-107475000D03*
X174000000Y-108725000D03*
D19*
X176900000Y-111275000D03*
X176900000Y-99925000D03*
%TD*%
D14*
%TO.C,D4*%
X145187500Y-103200000D03*
X143612500Y-103200000D03*
%TD*%
D17*
%TO.C,C33*%
X161800000Y-111680000D03*
X161800000Y-110720000D03*
%TD*%
D20*
%TO.C,C43*%
X137900000Y-100125000D03*
X137900000Y-101675000D03*
%TD*%
D14*
%TO.C,D7*%
X145187500Y-105000000D03*
X143612500Y-105000000D03*
%TD*%
M02*
