M48
; DRILL file {KiCad (5.99.0-8018-g9a0f685a75)} date 03/04/21 01:20:53
; FORMAT={-:-/ absolute / metric / decimal}
; #@! TF.CreationDate,2021-03-04T01:20:53+00:00
; #@! TF.GenerationSoftware,Kicad,Pcbnew,(5.99.0-8018-g9a0f685a75)
FMAT,2
METRIC
T1C0.254
T2C0.400
T3C0.500
T4C0.600
T5C0.650
T6C0.800
T7C0.850
T8C1.000
T9C1.100
T10C1.470
T11C1.610
T12C0.650
T13C2.700
%
G90
G05
T1
X124.2Y-90.0
X124.4Y-95.8
X124.4Y-99.2
X124.45Y-107.4
X124.5Y-105.55
X124.55Y-106.05
X124.55Y-108.0
X124.6Y-85.6
X124.6Y-93.2
X124.8Y-96.6
X125.0Y-75.0
X125.0Y-100.0
X125.2Y-114.95
X125.25Y-115.65
X125.3Y-116.35
X125.8Y-90.0
X125.8Y-93.2
X125.95Y-116.5
X126.0Y-76.0
X126.0Y-119.0
X126.0Y-121.0
X126.4Y-95.6
X126.65Y-108.45
X127.15Y-106.0
X127.35Y-109.65
X127.35Y-110.3
X128.0Y-74.0
X128.0Y-119.0
X128.0Y-121.0
X128.2Y-76.0
X128.3Y-111.5
X128.6Y-113.65
X129.0Y-117.0
X129.1Y-111.35
X129.25Y-113.7
X129.4Y-58.6
X129.4Y-84.9
X129.6Y-98.5
X129.8Y-91.4
X129.8Y-105.65
X129.85Y-106.3
X129.9Y-111.0
X130.0Y-74.2
X130.0Y-76.0
X130.0Y-84.7
X130.0Y-98.1
X130.2Y-88.3
X130.3Y-58.6
X130.3Y-98.5
X130.4Y-106.8
X130.4Y-107.4
X130.4Y-108.1
X130.5Y-84.8
X130.55Y-53.9
X130.7Y-58.0
X130.9Y-95.1
X130.95Y-88.4
X131.0Y-92.0
X131.25Y-54.1
X131.3Y-95.6
X131.4Y-92.5
X131.4Y-96.1
X131.45Y-109.8
X131.5Y-109.3
X131.55Y-54.75
X131.8Y-78.0
X132.0Y-68.0
X132.0Y-68.9
X132.0Y-70.0
X132.0Y-70.9
X132.0Y-72.1
X132.0Y-74.0
X132.0Y-76.0
X132.2Y-117.45
X132.25Y-116.75
X133.0Y-119.0
X133.45Y-102.7
X134.0Y-69.0
X134.0Y-70.0
X134.0Y-71.0
X134.0Y-72.0
X134.0Y-74.0
X134.0Y-76.0
X134.1Y-113.45
X134.6Y-102.8
X134.65Y-89.95
X134.75Y-86.9
X134.8Y-92.85
X134.8Y-94.2
X134.8Y-100.8
X134.8Y-103.5
X134.85Y-60.9
X134.9Y-87.45
X135.0Y-103.0
X135.0Y-119.0
X135.3Y-104.4
X135.4Y-62.55
X135.4Y-100.8
X135.4Y-113.1
X135.5Y-93.0
X135.6Y-94.2
X135.6Y-108.95
X135.65Y-60.4
X135.75Y-82.85
X135.817Y-90.334
X135.9Y-103.55
X136.0Y-72.0
X136.0Y-93.1
X136.1Y-104.1
X136.25Y-108.95
X136.5Y-90.7
X136.7Y-87.0
X137.0Y-112.3
X137.2Y-93.4
X137.2Y-97.8
X137.2Y-113.95
X137.2Y-114.55
X137.2Y-115.25
X137.3Y-62.3
X137.3Y-92.3
X137.4Y-95.4
X137.75Y-80.5
X138.0Y-64.0
X138.0Y-76.0
X138.05Y-83.1
X138.1Y-113.5
X138.8Y-86.2
X138.8Y-89.9
X138.85Y-45.9
X139.0Y-53.2
X139.0Y-77.875
X139.2Y-49.0
X139.2Y-83.15
X139.25Y-85.65
X139.4Y-80.55
X139.487Y-63.8
X139.5Y-119.3
X139.5Y-120.0
X139.5Y-120.7
X139.6Y-84.1
X139.6Y-87.65
X139.75Y-85.05
X140.0Y-62.0
X140.019Y-83.547
X140.1Y-91.8
X140.15Y-49.0
X140.15Y-94.95
X140.15Y-115.9
X140.2Y-94.35
X140.2Y-96.85
X140.25Y-43.85
X140.25Y-113.0
X140.4Y-93.6
X140.55Y-98.4
X140.55Y-99.35
X140.6Y-77.65
X140.6Y-83.0
X140.605Y-97.742
X140.65Y-68.6
X140.65Y-107.4
X140.8Y-69.35
X140.8Y-100.2
X141.0Y-63.8
X141.2Y-105.3
X141.25Y-91.05
X141.35Y-43.9
X141.35Y-104.6
X141.45Y-103.85
X141.5Y-49.0
X141.5Y-76.5
X141.5Y-77.7
X141.6Y-101.9
X141.8Y-112.7
X142.15Y-90.9
X142.2Y-91.5
X142.4Y-118.0
X142.45Y-49.1
X142.5Y-44.05
X142.5Y-49.65
X142.55Y-47.05
X142.6Y-82.75
X142.8Y-112.05
X142.8Y-117.9
X142.9Y-83.9
X143.075Y-77.975
X143.15Y-49.9
X143.25Y-69.65
X143.5Y-47.25
X143.7Y-44.0
X143.8Y-62.9
X143.8Y-113.1
X144.0Y-60.9
X144.0Y-69.275
X144.025Y-68.575
X144.1Y-112.1
X144.15Y-85.15
X144.2Y-76.6
X144.237Y-83.817
X144.275Y-82.775
X144.4Y-81.1
X144.451Y-113.209
X144.5Y-80.3
X144.6Y-77.15
X144.85Y-43.95
X145.15Y-46.85
X145.35Y-77.15
X145.35Y-90.95
X145.4Y-117.3
X145.5Y-116.6
X145.65Y-50.1
X145.9Y-47.0
X146.0Y-44.05
X146.0Y-77.5
X146.1Y-81.05
X146.3Y-85.8
X146.45Y-66.85
X146.475Y-69.3
X146.5Y-52.6
X146.525Y-68.55
X146.55Y-76.8
X146.6Y-76.15
X146.6Y-77.975
X146.8Y-92.3
X146.85Y-61.725
X146.9Y-80.556
X147.0Y-95.0
X147.0Y-97.0
X147.2Y-75.9
X147.3Y-43.95
X147.3Y-83.0
X147.45Y-49.0
X147.7Y-81.0
X147.8Y-85.3
X147.8Y-91.45
X147.9Y-83.0
X148.0Y-110.0
X148.0Y-117.2
X148.1Y-116.6
X148.15Y-87.8
X148.3Y-78.0
X148.4Y-69.325
X148.4Y-74.8
X148.5Y-43.95
X148.525Y-65.75
X148.6Y-80.7
X148.65Y-91.55
X148.925Y-69.05
X149.0Y-84.621
X149.0Y-95.0
X149.0Y-97.0
X149.0Y-117.2
X149.2Y-83.2
X149.525Y-69.1
X149.6Y-76.55
X149.7Y-43.85
X149.7Y-81.1
X150.0Y-110.0
X150.0Y-117.3
X150.05Y-105.55
X150.05Y-106.5
X150.05Y-107.1
X150.05Y-107.7
X150.1Y-101.05
X150.1Y-101.65
X150.1Y-102.8
X150.1Y-104.35
X150.1Y-104.9
X150.15Y-103.4
X150.2Y-85.9
X150.2Y-87.2
X150.3Y-78.05
X150.4Y-75.7
X150.8Y-83.65
X150.85Y-43.95
X150.85Y-46.9
X150.95Y-91.75
X151.0Y-75.7
X151.0Y-84.5
X151.05Y-81.05
X151.2Y-83.2
X151.35Y-78.0
X151.375Y-69.075
X151.85Y-96.95
X151.9Y-52.6
X151.9Y-75.7
X151.95Y-78.05
X151.95Y-107.65
X152.0Y-46.9
X152.0Y-110.0
X152.075Y-69.075
X152.15Y-43.95
X152.2Y-59.3
X152.45Y-83.25
X152.55Y-83.75
X152.9Y-78.0
X152.925Y-69.05
X152.95Y-92.3
X153.0Y-59.7
X153.0Y-67.0
X153.0Y-120.0
X153.0Y-121.0
X153.25Y-47.05
X153.4Y-43.95
X153.7Y-68.575
X153.8Y-83.3
X153.8Y-83.85
X153.8Y-84.35
X153.9Y-59.6
X154.1Y-78.0
X154.25Y-82.75
X154.35Y-86.25
X154.45Y-43.95
X154.5Y-68.5
X154.55Y-46.95
X154.55Y-117.35
X154.65Y-116.75
X154.65Y-118.2
X154.65Y-118.8
X154.8Y-112.95
X155.0Y-67.0
X155.0Y-108.0
X155.0Y-110.0
X155.0Y-120.0
X155.0Y-121.0
X155.15Y-68.5
X155.2Y-76.85
X155.25Y-86.2
X155.3Y-51.5
X155.65Y-43.95
X155.7Y-48.9
X155.7Y-112.95
X155.95Y-77.9
X156.0Y-65.0
X156.0Y-83.4
X156.0Y-106.0
X156.0Y-107.0
X156.3Y-84.5
X156.3Y-85.9
X156.4Y-79.9
X156.45Y-112.9
X156.5Y-81.0
X156.55Y-77.9
X156.55Y-82.85
X156.7Y-75.0
X156.9Y-44.0
X156.9Y-76.2
X157.0Y-49.0
X157.0Y-67.0
X157.0Y-120.0
X157.0Y-121.0
X157.1Y-86.05
X157.7Y-44.0
X158.15Y-71.65
X158.4Y-75.75
X158.5Y-74.4
X158.8Y-70.4
X158.9Y-117.8
X159.15Y-112.45
X159.55Y-70.15
X159.7Y-91.25
X160.0Y-119.8
X160.2Y-76.5
X160.35Y-90.9
X160.4Y-82.1
X160.5Y-69.85
X160.55Y-86.2
X160.7Y-119.9
X161.05Y-69.9
X161.1Y-82.1
X161.15Y-71.6
X161.15Y-80.75
X161.2Y-86.35
X161.2Y-91.0
X161.25Y-72.25
X161.3Y-64.5
X161.3Y-84.0
X161.3Y-85.1
X161.3Y-120.8
X161.35Y-66.8
X161.4Y-84.6
X161.6Y-93.9
X161.6Y-94.85
X161.9Y-121.0
X162.25Y-94.75
X162.45Y-107.2
X162.5Y-86.55
X162.55Y-106.25
X162.6Y-102.9
X162.65Y-101.4
X162.65Y-104.9
X162.65Y-108.2
X162.65Y-110.8
X162.65Y-111.65
X163.25Y-57.5
X163.5Y-52.6
X163.5Y-56.6
X163.6Y-53.7
X163.6Y-58.2
X163.6Y-119.95
X163.6Y-120.55
X163.65Y-54.8
X163.7Y-82.0
X163.8Y-69.7
X163.9Y-58.8
X163.975Y-74.825
X164.125Y-71.775
X164.15Y-72.375
X164.2Y-70.15
X164.3Y-75.375
X164.55Y-51.85
X164.6Y-83.0
X164.75Y-117.75
X164.85Y-118.75
X165.6Y-82.75
X165.7Y-109.406
X166.0Y-104.45
X166.1Y-115.45
X166.1Y-116.15
X166.1Y-120.4
X166.25Y-114.7
X166.3Y-119.75
X166.3Y-121.15
X166.45Y-94.85
X166.5Y-114.1
X166.75Y-119.2
X166.9Y-104.8
X167.0Y-101.4
X167.0Y-103.8
X167.1Y-100.1
X167.2Y-102.3
X167.25Y-95.1
X167.4Y-87.7
X167.4Y-96.05
X167.45Y-91.25
X167.45Y-96.65
X167.45Y-98.65
X167.45Y-104.85
X167.5Y-98.1
X167.55Y-100.5
X167.65Y-105.5
X167.7Y-107.1
X168.0Y-64.0
X168.2Y-97.9
X168.35Y-101.8
X168.45Y-95.5
X168.75Y-97.75
X169.0Y-105.95
X169.0Y-112.2
X169.05Y-95.8
X169.05Y-96.45
X169.05Y-106.5
X169.1Y-108.2
X169.2Y-51.75
X169.2Y-109.65
X169.5Y-51.0
X169.5Y-60.5
X170.0Y-64.0
X170.1Y-92.75
X170.25Y-98.5
X170.35Y-60.0
X170.45Y-51.4
X170.55Y-60.65
X170.9Y-91.2
X171.35Y-109.7
X171.4Y-71.6
X171.8Y-103.25
X172.0Y-64.0
X172.0Y-66.0
X172.0Y-68.0
X172.0Y-70.0
X172.0Y-94.25
X172.1Y-108.65
X172.15Y-105.5
X172.2Y-112.45
X172.25Y-99.05
X172.5Y-53.8
X172.7Y-99.8
X172.7Y-109.5
X172.8Y-87.75
X173.4Y-91.2
X173.45Y-59.15
X173.5Y-91.85
X173.5Y-98.0
X173.55Y-52.15
X173.75Y-51.5
X173.8Y-70.0
X173.8Y-71.8
X173.85Y-59.9
X174.0Y-64.0
X174.0Y-66.0
X174.0Y-68.0
X174.2Y-119.2
X174.25Y-116.6
X174.4Y-98.0
X174.4Y-114.6
X174.5Y-119.85
X174.5Y-121.4
X174.55Y-115.95
X174.6Y-57.25
X174.6Y-115.25
X174.65Y-120.65
X174.9Y-99.85
X175.0Y-51.5
X175.1Y-107.1
X175.1Y-107.65
X175.2Y-97.75
X175.35Y-91.95
X175.4Y-84.85
X175.75Y-85.3
X176.0Y-66.0
X176.0Y-68.0
X176.0Y-70.0
X176.0Y-86.75
X176.0Y-103.1
X176.1Y-52.35
X176.15Y-58.95
X176.4Y-71.8
X176.85Y-116.15
X177.1Y-103.65
X177.15Y-58.75
X177.15Y-93.15
X177.55Y-116.15
X177.9Y-93.15
X178.1Y-115.0
X178.1Y-115.6
X178.2Y-108.95
X178.3Y-113.35
X178.35Y-113.95
X178.55Y-102.9
X178.6Y-103.6
X178.8Y-87.15
X178.9Y-90.95
X178.95Y-85.05
X178.95Y-85.65
X178.95Y-86.25
X178.95Y-87.9
X178.95Y-88.9
X178.95Y-91.7
X179.0Y-89.6
T2
X171.018Y-46.759
T3
X133.15Y-117.0
X134.4Y-117.0
T5
X149.12Y-70.2
X149.12Y-71.47
X150.39Y-70.2
X150.39Y-71.47
X151.66Y-70.2
X151.66Y-71.47
X152.93Y-70.2
X152.93Y-71.47
X154.2Y-70.2
X154.2Y-71.47
T6
X133.7Y-46.0
X134.0Y-55.6
X134.3Y-50.4
X137.2Y-53.6
X153.8Y-97.2
X155.4Y-103.4
X159.4Y-50.4
X159.5Y-53.9
X163.9Y-50.4
X166.3Y-65.3
X166.3Y-71.2
T7
X174.737Y-85.9
X174.737Y-90.9
T8
X136.237Y-61.55
X136.237Y-66.05
X141.8Y-120.2
X142.737Y-61.55
X142.737Y-66.05
X144.34Y-120.2
X146.88Y-120.2
T9
X127.62Y-86.0
X127.67Y-89.5
X127.67Y-96.25
X127.67Y-99.75
X127.71Y-93.0
X130.16Y-86.0
X130.21Y-89.5
X130.21Y-96.25
X130.21Y-99.75
X130.25Y-93.0
X132.7Y-86.0
X132.75Y-89.5
X132.75Y-96.25
X132.75Y-99.75
X132.79Y-93.0
T10
X170.4Y-118.0
T11
X167.86Y-115.46
X167.86Y-120.54
X172.94Y-115.46
X172.94Y-120.54
T12
X172.65Y-52.86
X172.65Y-58.64
T13
X126.85Y-46.95
X126.85Y-79.95
X174.85Y-46.95
X174.85Y-79.95
T4
G00X171.57Y-51.43
M15
G01X172.67Y-51.43
M16
G05
G00X171.57Y-60.07
M15
G01X172.67Y-60.07
M16
G05
G00X176.0Y-51.43
M15
G01X176.6Y-51.43
M16
G05
G00X176.0Y-60.07
M15
G01X176.6Y-60.07
M16
G05
G00X177.088Y-84.9
M15
G01X177.787Y-84.9
M16
G05
G00X177.787Y-91.9
M15
G01X177.088Y-91.9
M16
G05
T0
M30
