M48
; DRILL file {KiCad (5.99.0-10089-gf88d39b4f0)} date Sun Apr 25 16:59:08 2021
; FORMAT={-:-/ absolute / metric / decimal}
; #@! TF.CreationDate,2021-04-25T16:59:08+01:00
; #@! TF.GenerationSoftware,Kicad,Pcbnew,(5.99.0-10089-gf88d39b4f0)
; #@! TF.FileFunction,MixedPlating,1,4
FMAT,2
METRIC
; #@! TA.AperFunction,Plated,PTH,ViaDrill
T1C0.254
; #@! TA.AperFunction,Plated,PTH,ViaDrill
T2C0.400
; #@! TA.AperFunction,Plated,PTH,ComponentDrill
T3C0.500
; #@! TA.AperFunction,Plated,PTH,ComponentDrill
T4C0.600
; #@! TA.AperFunction,Plated,PTH,ComponentDrill
T5C0.650
; #@! TA.AperFunction,Plated,PTH,ViaDrill
T6C0.800
; #@! TA.AperFunction,Plated,PTH,ComponentDrill
T7C1.000
; #@! TA.AperFunction,Plated,PTH,ComponentDrill
T8C1.100
; #@! TA.AperFunction,NonPlated,NPTH,ComponentDrill
T9C0.650
%
G90
G05
T1
X125.0Y-104.312
X125.0Y-111.8
X126.2Y-113.7
X126.4Y-60.2
X126.6Y-57.7
X127.0Y-103.9
X127.1Y-95.6
X127.3Y-83.0
X128.4Y-63.0
X128.4Y-111.6
X129.2Y-56.6
X130.2Y-63.8
X130.4Y-85.9
X130.5Y-90.3
X131.2Y-59.2
X131.5Y-104.5
X131.5Y-108.3
X131.5Y-109.0
X132.1Y-56.5
X132.2Y-105.7
X133.3Y-95.0
X133.3Y-113.2
X133.4Y-113.9
X133.7Y-93.6
X133.8Y-81.1
X134.0Y-90.5
X134.1Y-118.5
X134.1Y-120.0
X134.3Y-62.4
X134.6Y-58.1
X134.7Y-50.8
X134.8Y-51.7
X134.8Y-82.9
X134.9Y-100.4
X135.3Y-95.7
X135.4Y-58.0
X135.8Y-96.6
X136.2Y-87.2
X136.4Y-106.1
X136.5Y-93.5
X136.5Y-101.7
X136.5Y-106.8
X136.6Y-91.5
X136.6Y-94.5
X136.6Y-97.9
X136.7Y-69.6
X136.7Y-98.9
X136.8Y-96.6
X137.2Y-110.1
X137.3Y-102.0
X137.4Y-86.8
X139.7Y-56.9
X140.2Y-81.7
X140.2Y-86.48
X141.2Y-114.7
X141.4Y-50.0
X141.7Y-106.3
X141.8Y-85.1
X141.9Y-93.6
X141.9Y-99.3
X142.0Y-98.8
X142.1Y-96.8
X142.1Y-98.0
X142.2Y-50.0
X142.2Y-94.3
X142.4Y-66.4
X142.4Y-85.6
X142.5Y-83.5
X142.5Y-91.3
X142.7Y-107.4
X143.3Y-81.5
X143.3Y-113.9
X143.9Y-71.4
X143.9Y-90.7
X144.0Y-57.4
X144.0Y-59.6
X144.0Y-61.7
X144.1Y-83.2
X144.1Y-118.5
X144.2Y-113.8
X144.2Y-115.9
X144.5Y-87.3
X144.7Y-49.4
X144.7Y-108.5
X144.8Y-90.769
X145.3Y-73.9
X145.3Y-115.0
X145.8Y-49.3
X146.0Y-107.7
X146.0Y-116.7
X146.1Y-85.2
X146.5Y-108.4
X146.6Y-55.7
X146.6Y-56.3
X146.6Y-80.3
X146.6Y-115.4
X146.7Y-119.2
X147.2Y-96.9
X147.3Y-86.0
X147.375Y-83.275
X147.4Y-113.3
X147.8Y-80.4
X148.0Y-81.6
X148.2Y-79.5
X148.2Y-115.7
X148.3Y-57.6
X148.4Y-78.5
X148.8Y-58.2
X148.9Y-84.7
X148.9Y-86.4
X149.1Y-83.2
X149.3Y-50.6
X149.3Y-51.4
X149.7Y-111.7
X150.1Y-113.8
X150.4Y-91.5
X150.9Y-108.5
X151.3Y-84.4
X151.3Y-91.7
X151.441Y-83.269
X151.6Y-58.6
X151.7Y-108.6
X152.4Y-76.5
X152.5Y-78.7
X152.8Y-79.8
X152.9Y-114.5
X153.4Y-58.5
X153.6Y-81.7
X153.8Y-108.2
X154.0Y-111.7
X154.1Y-86.1
X154.2Y-66.2
X154.5Y-77.6
X154.7Y-82.5
X154.7Y-107.8
X155.2Y-96.9
X155.482Y-65.418
X155.6Y-86.0
X155.7Y-51.2
X155.7Y-52.1
X155.7Y-108.4
X155.832Y-66.632
X156.3Y-57.9
X156.8Y-58.3
X156.8Y-112.0
X157.7Y-115.9
X157.9Y-56.0
X158.0Y-55.3
X158.8Y-79.7
X158.8Y-108.6
X159.3Y-49.5
X159.4Y-98.9
X159.5Y-108.6
X159.7Y-100.6
X160.0Y-49.5
X160.0Y-77.4
X160.1Y-99.8
X160.2Y-105.4
X160.5Y-73.5
X160.6Y-69.8
X160.6Y-71.7
X161.0Y-114.5
X161.7Y-113.4
X162.7Y-113.4
X163.9Y-93.0
X164.1Y-78.5
X164.2Y-73.2
X164.2Y-75.4
X164.2Y-116.0
X164.3Y-96.3
X164.8Y-100.6
X165.4Y-105.6
X165.7Y-91.2
X165.7Y-104.6
X166.1Y-90.1
X166.4Y-110.4
X167.1Y-93.3
X167.5Y-96.9
X167.7Y-100.3
X167.9Y-98.6
X168.2Y-118.8
X168.3Y-117.4
X168.3Y-118.1
X169.4Y-109.4
X170.8Y-103.0
X171.3Y-96.0
X171.532Y-89.468
X171.9Y-105.9
X171.9Y-109.1
X172.0Y-98.4
X172.068Y-88.932
X172.3Y-92.7
X172.3Y-102.9
X173.7Y-99.6
X174.1Y-97.7
X174.1Y-116.9
X174.1Y-117.6
X174.1Y-118.5
X174.1Y-119.3
X174.9Y-98.2
X175.983Y-98.917
X176.0Y-93.1
X176.0Y-94.3
X176.2Y-112.8
X176.3Y-92.1
X176.9Y-103.0
X177.4Y-81.5
X177.4Y-114.7
X178.0Y-99.6
X178.5Y-114.5
T2
X133.9Y-97.2
X143.3Y-103.8
X149.4Y-90.8
X154.7Y-85.2
X156.6Y-74.1
X157.5Y-70.9
X157.5Y-76.6
X158.477Y-86.2
X159.5Y-94.1
X161.4Y-87.9
X164.8Y-88.3
T3
X126.975Y-115.9
X128.225Y-115.9
X177.45Y-91.7
X177.45Y-92.95
X177.45Y-94.2
X177.45Y-95.45
X177.45Y-96.7
T5
X176.1Y-82.69
X176.1Y-83.96
X176.1Y-85.23
X176.1Y-86.5
X176.1Y-87.77
X177.37Y-82.69
X177.37Y-83.96
X177.37Y-85.23
X177.37Y-86.5
X177.37Y-87.77
T6
X124.0Y-117.2
X126.1Y-54.8
X126.3Y-50.7
X129.4Y-105.4
X129.4Y-108.3
X130.3Y-81.7
X130.9Y-50.8
X130.9Y-112.3
X131.4Y-54.4
X131.5Y-93.7
X131.8Y-120.1
X132.2Y-115.7
X136.2Y-73.4
X140.8Y-71.7
X141.8Y-73.8
X143.4Y-77.5
X144.8Y-100.6
X147.6Y-73.0
X147.9Y-105.7
X148.3Y-100.9
X148.4Y-61.6
X150.3Y-59.8
X153.0Y-93.6
X154.4Y-60.0
X154.5Y-119.4
X156.1Y-94.0
X158.6Y-62.1
X162.5Y-59.1
X162.9Y-120.2
X163.0Y-83.5
X163.8Y-50.8
X163.8Y-54.6
X165.3Y-108.4
X165.6Y-70.4
X167.3Y-59.2
X167.9Y-54.7
X167.9Y-82.0
X168.1Y-50.8
X171.8Y-59.1
X172.0Y-50.8
X172.0Y-74.3
X172.2Y-54.6
X174.7Y-67.7
X175.8Y-59.3
X175.9Y-54.7
X175.9Y-107.0
X176.0Y-50.9
X177.9Y-117.8
T7
X125.45Y-85.85
X125.45Y-90.35
X125.6Y-95.375
X125.6Y-97.915
X125.6Y-100.455
X131.95Y-85.85
X131.95Y-90.35
T8
X127.62Y-65.45
X127.67Y-68.95
X127.67Y-75.7
X127.67Y-79.2
X127.71Y-72.45
X130.16Y-65.45
X130.21Y-68.95
X130.21Y-75.7
X130.21Y-79.2
X130.25Y-72.45
X132.7Y-65.45
X132.75Y-68.95
X132.75Y-75.7
X132.75Y-79.2
X132.79Y-72.45
T9
X149.61Y-55.24
X155.39Y-55.24
T4
G00X148.18Y-51.89
M15
G01X148.18Y-51.29
M16
G05
G00X148.18Y-56.32
M15
G01X148.18Y-55.22
M16
G05
G00X156.82Y-51.89
M15
G01X156.82Y-51.29
M16
G05
G00X156.82Y-56.32
M15
G01X156.82Y-55.22
M16
G05
T0
M30
